G75*
%MOIN*%
%OFA0B0*%
%FSLAX24Y24*%
%IPPOS*%
%LPD*%
%AMOC8*
5,1,8,0,0,1.08239X$1,22.5*
%
%ADD10C,0.0000*%
D10*
X000848Y001077D02*
X006754Y001077D01*
X006754Y001470D01*
X009904Y001470D01*
X009904Y001077D01*
X016793Y001077D01*
X016793Y002651D01*
X016795Y002677D01*
X016800Y002702D01*
X016808Y002726D01*
X016819Y002750D01*
X016834Y002771D01*
X016851Y002790D01*
X016870Y002807D01*
X016892Y002822D01*
X016915Y002833D01*
X016939Y002841D01*
X016964Y002846D01*
X016990Y002848D01*
X028211Y002848D01*
X028237Y002846D01*
X028262Y002841D01*
X028286Y002833D01*
X028310Y002822D01*
X028331Y002807D01*
X028350Y002790D01*
X028367Y002771D01*
X028382Y002750D01*
X028393Y002726D01*
X028401Y002702D01*
X028406Y002677D01*
X028408Y002651D01*
X028408Y001077D01*
X032345Y001077D01*
X032344Y001077D02*
X032339Y001460D01*
X032325Y001844D01*
X032302Y002227D01*
X032269Y002609D01*
X032227Y002990D01*
X032176Y003370D01*
X032116Y003749D01*
X032046Y004126D01*
X031967Y004501D01*
X031879Y004874D01*
X031782Y005245D01*
X031676Y005614D01*
X031561Y005980D01*
X031438Y006343D01*
X031305Y006703D01*
X031164Y007059D01*
X031014Y007412D01*
X030855Y007761D01*
X030688Y008107D01*
X030513Y008448D01*
X030329Y008784D01*
X030137Y009116D01*
X029937Y009444D01*
X029730Y009766D01*
X029514Y010083D01*
X029291Y010395D01*
X029060Y010702D01*
X028822Y011002D01*
X028577Y011297D01*
X028325Y011586D01*
X028065Y011868D01*
X027799Y012145D01*
X027526Y012414D01*
X027247Y012677D01*
X026961Y012933D01*
X026670Y013182D01*
X026372Y013423D01*
X026068Y013658D01*
X025759Y013885D01*
X025445Y014104D01*
X025125Y014316D01*
X024800Y014519D01*
X024470Y014715D01*
X024136Y014903D01*
X023797Y015082D01*
X023453Y015254D01*
X023106Y015416D01*
X022755Y015571D01*
X022400Y015716D01*
X022042Y015853D01*
X021681Y015982D01*
X021316Y016101D01*
X020949Y016211D01*
X020579Y016313D01*
X020207Y016405D01*
X019833Y016489D01*
X019456Y016563D01*
X019078Y016628D01*
X018699Y016684D01*
X018318Y016731D01*
X017937Y016768D01*
X017554Y016796D01*
X017171Y016814D01*
X016788Y016824D01*
X016404Y016824D01*
X016021Y016814D01*
X015638Y016796D01*
X015255Y016768D01*
X014874Y016731D01*
X014493Y016684D01*
X014114Y016628D01*
X013736Y016563D01*
X013359Y016489D01*
X012985Y016405D01*
X012613Y016313D01*
X012243Y016211D01*
X011876Y016101D01*
X011511Y015982D01*
X011150Y015853D01*
X010792Y015716D01*
X010437Y015571D01*
X010086Y015416D01*
X009739Y015254D01*
X009395Y015082D01*
X009056Y014903D01*
X008722Y014715D01*
X008392Y014519D01*
X008067Y014316D01*
X007747Y014104D01*
X007433Y013885D01*
X007124Y013658D01*
X006820Y013423D01*
X006522Y013182D01*
X006231Y012933D01*
X005945Y012677D01*
X005666Y012414D01*
X005393Y012145D01*
X005127Y011868D01*
X004867Y011586D01*
X004615Y011297D01*
X004370Y011002D01*
X004132Y010702D01*
X003901Y010395D01*
X003678Y010083D01*
X003462Y009766D01*
X003255Y009444D01*
X003055Y009116D01*
X002863Y008784D01*
X002679Y008448D01*
X002504Y008107D01*
X002337Y007761D01*
X002178Y007412D01*
X002028Y007059D01*
X001887Y006703D01*
X001754Y006343D01*
X001631Y005980D01*
X001516Y005614D01*
X001410Y005245D01*
X001313Y004874D01*
X001225Y004501D01*
X001146Y004126D01*
X001076Y003749D01*
X001016Y003370D01*
X000965Y002990D01*
X000923Y002609D01*
X000890Y002227D01*
X000867Y001844D01*
X000853Y001460D01*
X000848Y001077D01*
X007167Y003332D02*
X007169Y003360D01*
X007175Y003388D01*
X007184Y003414D01*
X007197Y003440D01*
X007213Y003463D01*
X007233Y003483D01*
X007255Y003501D01*
X007279Y003516D01*
X007305Y003527D01*
X007332Y003535D01*
X007360Y003539D01*
X007388Y003539D01*
X007416Y003535D01*
X007443Y003527D01*
X007469Y003516D01*
X007493Y003501D01*
X007515Y003483D01*
X007535Y003463D01*
X007551Y003440D01*
X007564Y003414D01*
X007573Y003388D01*
X007579Y003360D01*
X007581Y003332D01*
X007579Y003304D01*
X007573Y003276D01*
X007564Y003250D01*
X007551Y003224D01*
X007535Y003201D01*
X007515Y003181D01*
X007493Y003163D01*
X007469Y003148D01*
X007443Y003137D01*
X007416Y003129D01*
X007388Y003125D01*
X007360Y003125D01*
X007332Y003129D01*
X007305Y003137D01*
X007279Y003148D01*
X007255Y003163D01*
X007233Y003181D01*
X007213Y003201D01*
X007197Y003224D01*
X007184Y003250D01*
X007175Y003276D01*
X007169Y003304D01*
X007167Y003332D01*
X009077Y003332D02*
X009079Y003360D01*
X009085Y003388D01*
X009094Y003414D01*
X009107Y003440D01*
X009123Y003463D01*
X009143Y003483D01*
X009165Y003501D01*
X009189Y003516D01*
X009215Y003527D01*
X009242Y003535D01*
X009270Y003539D01*
X009298Y003539D01*
X009326Y003535D01*
X009353Y003527D01*
X009379Y003516D01*
X009403Y003501D01*
X009425Y003483D01*
X009445Y003463D01*
X009461Y003440D01*
X009474Y003414D01*
X009483Y003388D01*
X009489Y003360D01*
X009491Y003332D01*
X009489Y003304D01*
X009483Y003276D01*
X009474Y003250D01*
X009461Y003224D01*
X009445Y003201D01*
X009425Y003181D01*
X009403Y003163D01*
X009379Y003148D01*
X009353Y003137D01*
X009326Y003129D01*
X009298Y003125D01*
X009270Y003125D01*
X009242Y003129D01*
X009215Y003137D01*
X009189Y003148D01*
X009165Y003163D01*
X009143Y003181D01*
X009123Y003201D01*
X009107Y003224D01*
X009094Y003250D01*
X009085Y003276D01*
X009079Y003304D01*
X009077Y003332D01*
M02*
