G75*
%MOIN*%
%OFA0B0*%
%FSLAX24Y24*%
%IPPOS*%
%LPD*%
%AMOC8*
5,1,8,0,0,1.08239X$1,22.5*
%
%ADD10R,0.0700X0.0800*%
%ADD11R,0.0276X0.0354*%
%ADD12R,0.0354X0.0276*%
%ADD13R,0.0600X0.1600*%
%ADD14R,0.0217X0.0472*%
%ADD15C,0.0594*%
%ADD16C,0.0050*%
%ADD17OC8,0.0600*%
%ADD18R,0.0787X0.0787*%
%ADD19R,0.0433X0.0748*%
%ADD20R,0.0394X0.0394*%
%ADD21R,0.0256X0.0118*%
%ADD22R,0.0118X0.0256*%
%ADD23R,0.0413X0.0429*%
%ADD24R,0.0413X0.0280*%
%ADD25C,0.0120*%
%ADD26C,0.0317*%
%ADD27C,0.0100*%
%ADD28C,0.0160*%
D10*
X013581Y003951D03*
X015281Y003951D03*
D11*
X015317Y002100D03*
X014805Y002100D03*
X013506Y002061D03*
X012994Y002061D03*
X017561Y010447D03*
X018073Y010447D03*
X018270Y010998D03*
X017758Y010998D03*
X017561Y011706D03*
X018073Y011706D03*
X016813Y013321D03*
X016301Y013321D03*
D12*
X015612Y013183D03*
X015022Y013183D03*
X015022Y012671D03*
X015612Y012671D03*
X014352Y012671D03*
X014352Y013183D03*
X013683Y013183D03*
X013683Y012671D03*
X014471Y011844D03*
X014471Y011332D03*
X014471Y010545D03*
X014471Y010033D03*
X012069Y009994D03*
X012069Y010506D03*
X012069Y011490D03*
X012069Y012002D03*
X015967Y014088D03*
X015967Y014600D03*
X017148Y014600D03*
X017148Y014088D03*
X009156Y005624D03*
X009156Y005112D03*
X011951Y002710D03*
X011951Y002199D03*
X010691Y002002D03*
X010691Y002514D03*
X005967Y002514D03*
X005967Y002002D03*
D13*
X015573Y016077D03*
X017573Y016077D03*
D14*
X017443Y013399D03*
X017817Y013399D03*
X018191Y013399D03*
X018191Y012376D03*
X017443Y012376D03*
D15*
X022187Y014344D03*
X024943Y012888D03*
X027305Y010683D03*
X029234Y007966D03*
X030415Y005053D03*
X030967Y001982D03*
X011124Y014344D03*
X008329Y012848D03*
X005888Y010683D03*
X003998Y007966D03*
X002778Y005053D03*
X002305Y001982D03*
D16*
X000947Y002815D02*
X000882Y001248D01*
X002859Y001249D01*
X002909Y002669D01*
X000947Y002815D01*
X000945Y002774D02*
X001497Y002774D01*
X000943Y002726D02*
X002149Y002726D01*
X002800Y002677D02*
X000941Y002677D01*
X000939Y002629D02*
X002908Y002629D01*
X002906Y002580D02*
X000937Y002580D01*
X000935Y002532D02*
X002904Y002532D01*
X002903Y002483D02*
X000933Y002483D01*
X000931Y002435D02*
X002901Y002435D01*
X002899Y002386D02*
X000929Y002386D01*
X000927Y002338D02*
X002898Y002338D01*
X002896Y002289D02*
X000925Y002289D01*
X000923Y002241D02*
X002894Y002241D01*
X002892Y002192D02*
X000921Y002192D01*
X000919Y002144D02*
X002891Y002144D01*
X002889Y002095D02*
X000917Y002095D01*
X000915Y002047D02*
X002887Y002047D01*
X002886Y001998D02*
X000913Y001998D01*
X000911Y001950D02*
X002884Y001950D01*
X002882Y001901D02*
X000909Y001901D01*
X000907Y001853D02*
X002880Y001853D01*
X002879Y001804D02*
X000905Y001804D01*
X000903Y001756D02*
X002877Y001756D01*
X002875Y001707D02*
X000901Y001707D01*
X000899Y001659D02*
X002874Y001659D01*
X002872Y001610D02*
X000897Y001610D01*
X000895Y001562D02*
X002870Y001562D01*
X002868Y001513D02*
X000893Y001513D01*
X000891Y001465D02*
X002867Y001465D01*
X002865Y001416D02*
X000889Y001416D01*
X000887Y001368D02*
X002863Y001368D01*
X002861Y001319D02*
X000885Y001319D01*
X000883Y001271D02*
X002860Y001271D01*
X003148Y004212D02*
X003524Y005582D01*
X001647Y006176D01*
X001224Y004666D01*
X003148Y004212D01*
X003153Y004229D02*
X003075Y004229D01*
X003166Y004278D02*
X002869Y004278D01*
X002664Y004326D02*
X003179Y004326D01*
X003192Y004375D02*
X002458Y004375D01*
X002253Y004423D02*
X003206Y004423D01*
X003219Y004472D02*
X002047Y004472D01*
X001842Y004520D02*
X003232Y004520D01*
X003246Y004569D02*
X001636Y004569D01*
X001431Y004617D02*
X003259Y004617D01*
X003272Y004666D02*
X001225Y004666D01*
X001237Y004714D02*
X003286Y004714D01*
X003299Y004763D02*
X001251Y004763D01*
X001264Y004811D02*
X003312Y004811D01*
X003325Y004860D02*
X001278Y004860D01*
X001291Y004908D02*
X003339Y004908D01*
X003352Y004957D02*
X001305Y004957D01*
X001319Y005005D02*
X003365Y005005D01*
X003379Y005054D02*
X001332Y005054D01*
X001346Y005102D02*
X003392Y005102D01*
X003405Y005151D02*
X001359Y005151D01*
X001373Y005199D02*
X003419Y005199D01*
X003432Y005248D02*
X001387Y005248D01*
X001400Y005296D02*
X003445Y005296D01*
X003458Y005345D02*
X001414Y005345D01*
X001427Y005393D02*
X003472Y005393D01*
X003485Y005442D02*
X001441Y005442D01*
X001455Y005490D02*
X003498Y005490D01*
X003512Y005539D02*
X001468Y005539D01*
X001482Y005587D02*
X003509Y005587D01*
X003355Y005636D02*
X001495Y005636D01*
X001509Y005684D02*
X003202Y005684D01*
X003049Y005733D02*
X001523Y005733D01*
X001536Y005781D02*
X002896Y005781D01*
X002742Y005830D02*
X001550Y005830D01*
X001563Y005878D02*
X002589Y005878D01*
X002436Y005927D02*
X001577Y005927D01*
X001591Y005975D02*
X002282Y005975D01*
X002129Y006024D02*
X001604Y006024D01*
X001618Y006072D02*
X001976Y006072D01*
X001823Y006121D02*
X001631Y006121D01*
X001645Y006169D02*
X001669Y006169D01*
X003431Y007430D02*
X004365Y007430D01*
X004338Y007382D02*
X003528Y007382D01*
X003624Y007333D02*
X004312Y007333D01*
X004285Y007285D02*
X003721Y007285D01*
X003818Y007236D02*
X004259Y007236D01*
X004232Y007188D02*
X003914Y007188D01*
X004011Y007139D02*
X004205Y007139D01*
X004179Y007091D02*
X004107Y007091D01*
X004163Y007062D02*
X004846Y008308D01*
X003159Y009321D01*
X002397Y007950D01*
X004163Y007062D01*
X004392Y007479D02*
X003335Y007479D01*
X003238Y007527D02*
X004418Y007527D01*
X004445Y007576D02*
X003142Y007576D01*
X003045Y007624D02*
X004471Y007624D01*
X004498Y007673D02*
X002949Y007673D01*
X002852Y007721D02*
X004524Y007721D01*
X004551Y007770D02*
X002756Y007770D01*
X002659Y007818D02*
X004578Y007818D01*
X004604Y007867D02*
X002563Y007867D01*
X002466Y007915D02*
X004631Y007915D01*
X004657Y007964D02*
X002404Y007964D01*
X002431Y008012D02*
X004684Y008012D01*
X004711Y008061D02*
X002458Y008061D01*
X002485Y008109D02*
X004737Y008109D01*
X004764Y008158D02*
X002512Y008158D01*
X002539Y008206D02*
X004790Y008206D01*
X004817Y008255D02*
X002566Y008255D01*
X002593Y008303D02*
X004843Y008303D01*
X004775Y008352D02*
X002620Y008352D01*
X002647Y008400D02*
X004694Y008400D01*
X004613Y008449D02*
X002674Y008449D01*
X002701Y008497D02*
X004532Y008497D01*
X004451Y008546D02*
X002728Y008546D01*
X002755Y008594D02*
X004370Y008594D01*
X004289Y008643D02*
X002782Y008643D01*
X002809Y008691D02*
X004209Y008691D01*
X004128Y008740D02*
X002836Y008740D01*
X002862Y008788D02*
X004047Y008788D01*
X003966Y008837D02*
X002889Y008837D01*
X002916Y008885D02*
X003885Y008885D01*
X003804Y008934D02*
X002943Y008934D01*
X002970Y008982D02*
X003723Y008982D01*
X003643Y009031D02*
X002997Y009031D01*
X003024Y009079D02*
X003562Y009079D01*
X003481Y009128D02*
X003051Y009128D01*
X003078Y009176D02*
X003400Y009176D01*
X003319Y009225D02*
X003105Y009225D01*
X003132Y009273D02*
X003238Y009273D01*
X004866Y010583D02*
X006578Y010583D01*
X006621Y010631D02*
X004808Y010631D01*
X004750Y010680D02*
X006665Y010680D01*
X006709Y010728D02*
X004692Y010728D01*
X004634Y010777D02*
X006752Y010777D01*
X006792Y010821D02*
X005383Y012194D01*
X004326Y011035D01*
X005841Y009765D01*
X006792Y010821D01*
X006788Y010825D02*
X004576Y010825D01*
X004519Y010874D02*
X006738Y010874D01*
X006688Y010922D02*
X004461Y010922D01*
X004403Y010971D02*
X006638Y010971D01*
X006589Y011019D02*
X004345Y011019D01*
X004355Y011068D02*
X006539Y011068D01*
X006489Y011116D02*
X004399Y011116D01*
X004444Y011165D02*
X006439Y011165D01*
X006389Y011213D02*
X004488Y011213D01*
X004532Y011262D02*
X006340Y011262D01*
X006290Y011310D02*
X004576Y011310D01*
X004620Y011359D02*
X006240Y011359D01*
X006190Y011407D02*
X004665Y011407D01*
X004709Y011456D02*
X006141Y011456D01*
X006091Y011504D02*
X004753Y011504D01*
X004797Y011553D02*
X006041Y011553D01*
X005991Y011601D02*
X004842Y011601D01*
X004886Y011650D02*
X005941Y011650D01*
X005892Y011698D02*
X004930Y011698D01*
X004974Y011747D02*
X005842Y011747D01*
X005792Y011795D02*
X005019Y011795D01*
X005063Y011844D02*
X005742Y011844D01*
X005693Y011892D02*
X005107Y011892D01*
X005151Y011941D02*
X005643Y011941D01*
X005593Y011989D02*
X005195Y011989D01*
X005240Y012038D02*
X005543Y012038D01*
X005493Y012086D02*
X005284Y012086D01*
X005328Y012135D02*
X005444Y012135D01*
X005394Y012183D02*
X005372Y012183D01*
X007114Y013250D02*
X008938Y013250D01*
X008969Y013202D02*
X007150Y013202D01*
X007186Y013153D02*
X009000Y013153D01*
X009031Y013105D02*
X007222Y013105D01*
X007259Y013056D02*
X009061Y013056D01*
X009092Y013008D02*
X007295Y013008D01*
X007331Y012959D02*
X009123Y012959D01*
X009154Y012911D02*
X007367Y012911D01*
X007403Y012862D02*
X009185Y012862D01*
X009216Y012814D02*
X007439Y012814D01*
X007476Y012765D02*
X009227Y012765D01*
X009241Y012774D02*
X008185Y014435D01*
X006890Y013551D01*
X008072Y011966D01*
X009241Y012774D01*
X009157Y012717D02*
X007512Y012717D01*
X007548Y012668D02*
X009087Y012668D01*
X009017Y012620D02*
X007584Y012620D01*
X007620Y012571D02*
X008947Y012571D01*
X008877Y012523D02*
X007656Y012523D01*
X007693Y012474D02*
X008807Y012474D01*
X008736Y012426D02*
X007729Y012426D01*
X007765Y012377D02*
X008666Y012377D01*
X008596Y012329D02*
X007801Y012329D01*
X007837Y012280D02*
X008526Y012280D01*
X008456Y012232D02*
X007874Y012232D01*
X007910Y012183D02*
X008386Y012183D01*
X008316Y012135D02*
X007946Y012135D01*
X007982Y012086D02*
X008246Y012086D01*
X008175Y012038D02*
X008018Y012038D01*
X008054Y011989D02*
X008105Y011989D01*
X008907Y013299D02*
X007078Y013299D01*
X007041Y013347D02*
X008876Y013347D01*
X008846Y013396D02*
X007005Y013396D01*
X006969Y013444D02*
X008815Y013444D01*
X008784Y013493D02*
X006933Y013493D01*
X006897Y013541D02*
X008753Y013541D01*
X008722Y013590D02*
X006947Y013590D01*
X007018Y013638D02*
X008691Y013638D01*
X008661Y013687D02*
X007089Y013687D01*
X007160Y013735D02*
X008630Y013735D01*
X008599Y013784D02*
X007231Y013784D01*
X007302Y013832D02*
X008568Y013832D01*
X008537Y013881D02*
X007373Y013881D01*
X007444Y013929D02*
X008506Y013929D01*
X008476Y013978D02*
X007515Y013978D01*
X007586Y014026D02*
X008445Y014026D01*
X008414Y014075D02*
X007657Y014075D01*
X007728Y014123D02*
X008383Y014123D01*
X008352Y014172D02*
X007799Y014172D01*
X007870Y014220D02*
X008321Y014220D01*
X008291Y014269D02*
X007941Y014269D01*
X008012Y014317D02*
X008260Y014317D01*
X008229Y014366D02*
X008083Y014366D01*
X008154Y014414D02*
X008198Y014414D01*
X009961Y015190D02*
X011604Y015190D01*
X011621Y015142D02*
X009981Y015142D01*
X010002Y015093D02*
X011638Y015093D01*
X011654Y015045D02*
X010023Y015045D01*
X010044Y014996D02*
X011671Y014996D01*
X011688Y014948D02*
X010065Y014948D01*
X010086Y014899D02*
X011705Y014899D01*
X011721Y014851D02*
X010107Y014851D01*
X010128Y014802D02*
X011738Y014802D01*
X011755Y014754D02*
X010149Y014754D01*
X010170Y014705D02*
X011772Y014705D01*
X011788Y014657D02*
X010191Y014657D01*
X010211Y014608D02*
X011805Y014608D01*
X011822Y014560D02*
X010232Y014560D01*
X010253Y014511D02*
X011839Y014511D01*
X011855Y014463D02*
X010274Y014463D01*
X010295Y014414D02*
X011872Y014414D01*
X011889Y014366D02*
X010316Y014366D01*
X010337Y014317D02*
X011906Y014317D01*
X011922Y014269D02*
X010358Y014269D01*
X010379Y014220D02*
X011939Y014220D01*
X011956Y014172D02*
X010400Y014172D01*
X010421Y014123D02*
X011972Y014123D01*
X011989Y014075D02*
X010441Y014075D01*
X010462Y014026D02*
X011904Y014026D01*
X011994Y014061D02*
X011352Y015922D01*
X009887Y015361D01*
X010670Y013545D01*
X011994Y014061D01*
X011780Y013978D02*
X010483Y013978D01*
X010504Y013929D02*
X011655Y013929D01*
X011530Y013881D02*
X010525Y013881D01*
X010546Y013832D02*
X011406Y013832D01*
X011281Y013784D02*
X010567Y013784D01*
X010588Y013735D02*
X011157Y013735D01*
X011032Y013687D02*
X010609Y013687D01*
X010630Y013638D02*
X010907Y013638D01*
X010783Y013590D02*
X010651Y013590D01*
X009940Y015239D02*
X011587Y015239D01*
X011571Y015287D02*
X009919Y015287D01*
X009898Y015336D02*
X011554Y015336D01*
X011537Y015384D02*
X009947Y015384D01*
X010074Y015433D02*
X011520Y015433D01*
X011504Y015481D02*
X010200Y015481D01*
X010327Y015530D02*
X011487Y015530D01*
X011470Y015578D02*
X010454Y015578D01*
X010581Y015627D02*
X011454Y015627D01*
X011437Y015675D02*
X010708Y015675D01*
X010834Y015724D02*
X011420Y015724D01*
X011403Y015772D02*
X010961Y015772D01*
X011088Y015821D02*
X011387Y015821D01*
X011370Y015869D02*
X011215Y015869D01*
X011341Y015918D02*
X011353Y015918D01*
X006534Y010534D02*
X004924Y010534D01*
X004981Y010486D02*
X006490Y010486D01*
X006446Y010437D02*
X005039Y010437D01*
X005097Y010389D02*
X006403Y010389D01*
X006359Y010340D02*
X005155Y010340D01*
X005213Y010292D02*
X006315Y010292D01*
X006272Y010243D02*
X005271Y010243D01*
X005328Y010195D02*
X006228Y010195D01*
X006184Y010146D02*
X005386Y010146D01*
X005444Y010098D02*
X006140Y010098D01*
X006097Y010049D02*
X005502Y010049D01*
X005560Y010001D02*
X006053Y010001D01*
X006009Y009952D02*
X005618Y009952D01*
X005676Y009904D02*
X005966Y009904D01*
X005922Y009855D02*
X005733Y009855D01*
X005791Y009807D02*
X005878Y009807D01*
X021316Y014052D02*
X022647Y013553D01*
X023408Y015368D01*
X021942Y015927D01*
X021316Y014052D01*
X021324Y014075D02*
X022865Y014075D01*
X022886Y014123D02*
X021340Y014123D01*
X021356Y014172D02*
X022906Y014172D01*
X022926Y014220D02*
X021372Y014220D01*
X021388Y014269D02*
X022947Y014269D01*
X022967Y014317D02*
X021405Y014317D01*
X021421Y014366D02*
X022987Y014366D01*
X023008Y014414D02*
X021437Y014414D01*
X021453Y014463D02*
X023028Y014463D01*
X023048Y014511D02*
X021469Y014511D01*
X021486Y014560D02*
X023069Y014560D01*
X023089Y014608D02*
X021502Y014608D01*
X021518Y014657D02*
X023110Y014657D01*
X023130Y014705D02*
X021534Y014705D01*
X021550Y014754D02*
X023150Y014754D01*
X023171Y014802D02*
X021567Y014802D01*
X021583Y014851D02*
X023191Y014851D01*
X023211Y014899D02*
X021599Y014899D01*
X021615Y014948D02*
X023232Y014948D01*
X023252Y014996D02*
X021631Y014996D01*
X021648Y015045D02*
X023272Y015045D01*
X023293Y015093D02*
X021664Y015093D01*
X021680Y015142D02*
X023313Y015142D01*
X023333Y015190D02*
X021696Y015190D01*
X021712Y015239D02*
X023354Y015239D01*
X023374Y015287D02*
X021729Y015287D01*
X021745Y015336D02*
X023394Y015336D01*
X023367Y015384D02*
X021761Y015384D01*
X021777Y015433D02*
X023239Y015433D01*
X023112Y015481D02*
X021794Y015481D01*
X021810Y015530D02*
X022985Y015530D01*
X022858Y015578D02*
X021826Y015578D01*
X021842Y015627D02*
X022730Y015627D01*
X022603Y015675D02*
X021858Y015675D01*
X021875Y015724D02*
X022476Y015724D01*
X022349Y015772D02*
X021891Y015772D01*
X021907Y015821D02*
X022221Y015821D01*
X022094Y015869D02*
X021923Y015869D01*
X021939Y015918D02*
X021967Y015918D01*
X024865Y014172D02*
X025526Y014172D01*
X025453Y014220D02*
X024894Y014220D01*
X024924Y014269D02*
X025380Y014269D01*
X025307Y014317D02*
X024953Y014317D01*
X024983Y014366D02*
X025235Y014366D01*
X025162Y014414D02*
X025012Y014414D01*
X025041Y014463D02*
X025089Y014463D01*
X025055Y014485D02*
X026361Y013616D01*
X025216Y012014D01*
X024029Y012795D01*
X025055Y014485D01*
X024835Y014123D02*
X025599Y014123D01*
X025671Y014075D02*
X024806Y014075D01*
X024776Y014026D02*
X025744Y014026D01*
X025817Y013978D02*
X024747Y013978D01*
X024717Y013929D02*
X025890Y013929D01*
X025963Y013881D02*
X024688Y013881D01*
X024658Y013832D02*
X026036Y013832D01*
X026108Y013784D02*
X024629Y013784D01*
X024600Y013735D02*
X026181Y013735D01*
X026254Y013687D02*
X024570Y013687D01*
X024541Y013638D02*
X026327Y013638D01*
X026342Y013590D02*
X024511Y013590D01*
X024482Y013541D02*
X026307Y013541D01*
X026273Y013493D02*
X024452Y013493D01*
X024423Y013444D02*
X026238Y013444D01*
X026203Y013396D02*
X024393Y013396D01*
X024364Y013347D02*
X026169Y013347D01*
X026134Y013299D02*
X024334Y013299D01*
X024305Y013250D02*
X026099Y013250D01*
X026065Y013202D02*
X024275Y013202D01*
X024246Y013153D02*
X026030Y013153D01*
X025995Y013105D02*
X024217Y013105D01*
X024187Y013056D02*
X025961Y013056D01*
X025926Y013008D02*
X024158Y013008D01*
X024128Y012959D02*
X025891Y012959D01*
X025857Y012911D02*
X024099Y012911D01*
X024069Y012862D02*
X025822Y012862D01*
X025787Y012814D02*
X024040Y012814D01*
X024075Y012765D02*
X025753Y012765D01*
X025718Y012717D02*
X024148Y012717D01*
X024222Y012668D02*
X025683Y012668D01*
X025649Y012620D02*
X024296Y012620D01*
X024370Y012571D02*
X025614Y012571D01*
X025579Y012523D02*
X024443Y012523D01*
X024517Y012474D02*
X025545Y012474D01*
X025510Y012426D02*
X024591Y012426D01*
X024665Y012377D02*
X025475Y012377D01*
X025441Y012329D02*
X024738Y012329D01*
X024812Y012280D02*
X025406Y012280D01*
X025371Y012232D02*
X024886Y012232D01*
X024960Y012183D02*
X025337Y012183D01*
X025302Y012135D02*
X025033Y012135D01*
X025107Y012086D02*
X025267Y012086D01*
X025233Y012038D02*
X025181Y012038D01*
X026606Y011019D02*
X028803Y011019D01*
X028853Y011063D02*
X027785Y012211D01*
X026394Y010805D01*
X027368Y009770D01*
X028853Y011063D01*
X028848Y011068D02*
X026654Y011068D01*
X026702Y011116D02*
X028803Y011116D01*
X028758Y011165D02*
X026750Y011165D01*
X026798Y011213D02*
X028713Y011213D01*
X028668Y011262D02*
X026846Y011262D01*
X026894Y011310D02*
X028623Y011310D01*
X028578Y011359D02*
X026942Y011359D01*
X026990Y011407D02*
X028532Y011407D01*
X028487Y011456D02*
X027038Y011456D01*
X027086Y011504D02*
X028442Y011504D01*
X028397Y011553D02*
X027134Y011553D01*
X027182Y011601D02*
X028352Y011601D01*
X028307Y011650D02*
X027229Y011650D01*
X027277Y011698D02*
X028262Y011698D01*
X028216Y011747D02*
X027325Y011747D01*
X027373Y011795D02*
X028171Y011795D01*
X028126Y011844D02*
X027421Y011844D01*
X027469Y011892D02*
X028081Y011892D01*
X028036Y011941D02*
X027517Y011941D01*
X027565Y011989D02*
X027991Y011989D01*
X027946Y012038D02*
X027613Y012038D01*
X027661Y012086D02*
X027901Y012086D01*
X027855Y012135D02*
X027709Y012135D01*
X027757Y012183D02*
X027810Y012183D01*
X028747Y010971D02*
X026558Y010971D01*
X026510Y010922D02*
X028691Y010922D01*
X028636Y010874D02*
X026462Y010874D01*
X026414Y010825D02*
X028580Y010825D01*
X028524Y010777D02*
X026421Y010777D01*
X026467Y010728D02*
X028469Y010728D01*
X028413Y010680D02*
X026512Y010680D01*
X026558Y010631D02*
X028357Y010631D01*
X028301Y010583D02*
X026604Y010583D01*
X026649Y010534D02*
X028246Y010534D01*
X028190Y010486D02*
X026695Y010486D01*
X026741Y010437D02*
X028134Y010437D01*
X028079Y010389D02*
X026786Y010389D01*
X026832Y010340D02*
X028023Y010340D01*
X027967Y010292D02*
X026878Y010292D01*
X026923Y010243D02*
X027912Y010243D01*
X027856Y010195D02*
X026969Y010195D01*
X027015Y010146D02*
X027800Y010146D01*
X027744Y010098D02*
X027060Y010098D01*
X027106Y010049D02*
X027689Y010049D01*
X027633Y010001D02*
X027152Y010001D01*
X027197Y009952D02*
X027577Y009952D01*
X027522Y009904D02*
X027243Y009904D01*
X027289Y009855D02*
X027466Y009855D01*
X027410Y009807D02*
X027334Y009807D01*
X029087Y008740D02*
X030396Y008740D01*
X030368Y008788D02*
X029165Y008788D01*
X029242Y008837D02*
X030340Y008837D01*
X030313Y008885D02*
X029320Y008885D01*
X029398Y008934D02*
X030285Y008934D01*
X030258Y008982D02*
X029475Y008982D01*
X029553Y009031D02*
X030230Y009031D01*
X030203Y009079D02*
X029630Y009079D01*
X029708Y009128D02*
X030175Y009128D01*
X030147Y009176D02*
X029785Y009176D01*
X029863Y009225D02*
X030120Y009225D01*
X030092Y009273D02*
X029940Y009273D01*
X030018Y009322D02*
X030065Y009322D01*
X030052Y009343D02*
X030828Y007980D01*
X029086Y007064D01*
X028376Y008295D01*
X030052Y009343D01*
X030423Y008691D02*
X029010Y008691D01*
X028932Y008643D02*
X030451Y008643D01*
X030478Y008594D02*
X028855Y008594D01*
X028777Y008546D02*
X030506Y008546D01*
X030534Y008497D02*
X028700Y008497D01*
X028622Y008449D02*
X030561Y008449D01*
X030589Y008400D02*
X028544Y008400D01*
X028467Y008352D02*
X030616Y008352D01*
X030644Y008303D02*
X028389Y008303D01*
X028399Y008255D02*
X030672Y008255D01*
X030699Y008206D02*
X028427Y008206D01*
X028455Y008158D02*
X030727Y008158D01*
X030754Y008109D02*
X028483Y008109D01*
X028511Y008061D02*
X030782Y008061D01*
X030810Y008012D02*
X028539Y008012D01*
X028567Y007964D02*
X030797Y007964D01*
X030705Y007915D02*
X028595Y007915D01*
X028623Y007867D02*
X030612Y007867D01*
X030520Y007818D02*
X028651Y007818D01*
X028679Y007770D02*
X030428Y007770D01*
X030336Y007721D02*
X028707Y007721D01*
X028735Y007673D02*
X030244Y007673D01*
X030151Y007624D02*
X028763Y007624D01*
X028791Y007576D02*
X030059Y007576D01*
X029967Y007527D02*
X028819Y007527D01*
X028847Y007479D02*
X029875Y007479D01*
X029783Y007430D02*
X028875Y007430D01*
X028903Y007382D02*
X029690Y007382D01*
X029598Y007333D02*
X028931Y007333D01*
X028959Y007285D02*
X029506Y007285D01*
X029414Y007236D02*
X028986Y007236D01*
X029014Y007188D02*
X029322Y007188D01*
X029229Y007139D02*
X029042Y007139D01*
X029070Y007091D02*
X029137Y007091D01*
X030422Y005830D02*
X031638Y005830D01*
X031624Y005878D02*
X030565Y005878D01*
X030708Y005927D02*
X031610Y005927D01*
X031595Y005975D02*
X030851Y005975D01*
X030994Y006024D02*
X031581Y006024D01*
X031567Y006072D02*
X031137Y006072D01*
X031280Y006121D02*
X031553Y006121D01*
X031539Y006169D02*
X031423Y006169D01*
X031528Y006205D02*
X031969Y004699D01*
X030063Y004209D01*
X029656Y005570D01*
X031528Y006205D01*
X031652Y005781D02*
X030279Y005781D01*
X030135Y005733D02*
X031667Y005733D01*
X031681Y005684D02*
X029992Y005684D01*
X029849Y005636D02*
X031695Y005636D01*
X031709Y005587D02*
X029706Y005587D01*
X029665Y005539D02*
X031723Y005539D01*
X031738Y005490D02*
X029680Y005490D01*
X029694Y005442D02*
X031752Y005442D01*
X031766Y005393D02*
X029709Y005393D01*
X029723Y005345D02*
X031780Y005345D01*
X031794Y005296D02*
X029738Y005296D01*
X029752Y005248D02*
X031809Y005248D01*
X031823Y005199D02*
X029767Y005199D01*
X029781Y005151D02*
X031837Y005151D01*
X031851Y005102D02*
X029796Y005102D01*
X029810Y005054D02*
X031866Y005054D01*
X031880Y005005D02*
X029825Y005005D01*
X029839Y004957D02*
X031894Y004957D01*
X031908Y004908D02*
X029854Y004908D01*
X029868Y004860D02*
X031922Y004860D01*
X031937Y004811D02*
X029883Y004811D01*
X029897Y004763D02*
X031951Y004763D01*
X031965Y004714D02*
X029912Y004714D01*
X029926Y004666D02*
X031838Y004666D01*
X031649Y004617D02*
X029941Y004617D01*
X029956Y004569D02*
X031461Y004569D01*
X031273Y004520D02*
X029970Y004520D01*
X029985Y004472D02*
X031084Y004472D01*
X030896Y004423D02*
X029999Y004423D01*
X030014Y004375D02*
X030708Y004375D01*
X030519Y004326D02*
X030028Y004326D01*
X030043Y004278D02*
X030331Y004278D01*
X030143Y004229D02*
X030057Y004229D01*
X030347Y002661D02*
X032316Y002844D01*
X032396Y001278D01*
X030428Y001242D01*
X030347Y002661D01*
X030349Y002629D02*
X032327Y002629D01*
X032325Y002677D02*
X030519Y002677D01*
X030352Y002580D02*
X032330Y002580D01*
X032332Y002532D02*
X030355Y002532D01*
X030358Y002483D02*
X032335Y002483D01*
X032337Y002435D02*
X030360Y002435D01*
X030363Y002386D02*
X032340Y002386D01*
X032342Y002338D02*
X030366Y002338D01*
X030369Y002289D02*
X032344Y002289D01*
X032347Y002241D02*
X030371Y002241D01*
X030374Y002192D02*
X032349Y002192D01*
X032352Y002144D02*
X030377Y002144D01*
X030380Y002095D02*
X032354Y002095D01*
X032357Y002047D02*
X030382Y002047D01*
X030385Y001998D02*
X032359Y001998D01*
X032362Y001950D02*
X030388Y001950D01*
X030391Y001901D02*
X032364Y001901D01*
X032367Y001853D02*
X030394Y001853D01*
X030396Y001804D02*
X032369Y001804D01*
X032372Y001756D02*
X030399Y001756D01*
X030402Y001707D02*
X032374Y001707D01*
X032377Y001659D02*
X030405Y001659D01*
X030407Y001610D02*
X032379Y001610D01*
X032382Y001562D02*
X030410Y001562D01*
X030413Y001513D02*
X032384Y001513D01*
X032387Y001465D02*
X030416Y001465D01*
X030419Y001416D02*
X032389Y001416D01*
X032392Y001368D02*
X030421Y001368D01*
X030424Y001319D02*
X032394Y001319D01*
X031979Y001271D02*
X030427Y001271D01*
X031039Y002726D02*
X032322Y002726D01*
X032320Y002774D02*
X031560Y002774D01*
X032080Y002823D02*
X032317Y002823D01*
X022662Y013590D02*
X022550Y013590D01*
X022420Y013638D02*
X022682Y013638D01*
X022703Y013687D02*
X022291Y013687D01*
X022161Y013735D02*
X022723Y013735D01*
X022743Y013784D02*
X022032Y013784D01*
X021902Y013832D02*
X022764Y013832D01*
X022784Y013881D02*
X021773Y013881D01*
X021643Y013929D02*
X022804Y013929D01*
X022825Y013978D02*
X021514Y013978D01*
X021384Y014026D02*
X022845Y014026D01*
D17*
X023002Y004923D03*
X022002Y004923D03*
X021002Y004923D03*
X020002Y004923D03*
X019002Y004923D03*
X019002Y003923D03*
X020002Y003923D03*
X021002Y003923D03*
X022002Y003923D03*
X023002Y003923D03*
X024002Y003923D03*
X025002Y003923D03*
X026002Y003923D03*
X026002Y004923D03*
X025002Y004923D03*
X024002Y004923D03*
D18*
X009402Y002140D03*
X007256Y002140D03*
D19*
X012758Y010269D03*
X013663Y010269D03*
X013663Y011726D03*
X012758Y011726D03*
D20*
X015809Y011077D03*
D21*
X015061Y011077D03*
X015061Y011273D03*
X015061Y011470D03*
X015061Y010880D03*
X015061Y010683D03*
X016557Y010683D03*
X016557Y010880D03*
X016557Y011077D03*
X016557Y011273D03*
X016557Y011470D03*
D22*
X016203Y011825D03*
X016006Y011825D03*
X015809Y011825D03*
X015612Y011825D03*
X015415Y011825D03*
X015415Y010328D03*
X015612Y010328D03*
X015809Y010328D03*
X016006Y010328D03*
X016203Y010328D03*
D23*
X025484Y007301D03*
X026764Y007301D03*
X026764Y005640D03*
X025484Y005640D03*
D24*
X025484Y006218D03*
X025484Y006718D03*
X026764Y006718D03*
X026764Y006218D03*
D25*
X027091Y006172D02*
X028201Y006172D01*
X028252Y006054D02*
X027091Y006054D01*
X027091Y006029D02*
X027091Y006408D01*
X027030Y006468D01*
X027091Y006529D01*
X027091Y006908D01*
X027026Y006972D01*
X027091Y007037D01*
X027091Y007565D01*
X027020Y007635D01*
X026738Y007635D01*
X025930Y008443D01*
X025813Y008560D01*
X024275Y008560D01*
X024316Y008659D01*
X024316Y008770D01*
X024273Y008872D01*
X024237Y008908D01*
X024237Y010450D01*
X024273Y010486D01*
X024316Y010588D01*
X024316Y010665D01*
X024982Y010095D01*
X024927Y010095D01*
X024825Y010053D01*
X024746Y009974D01*
X024704Y009872D01*
X024704Y009761D01*
X024746Y009659D01*
X024782Y009623D01*
X024782Y009336D01*
X024706Y009305D01*
X024628Y009226D01*
X024586Y009124D01*
X024586Y009013D01*
X024628Y008911D01*
X024706Y008833D01*
X024809Y008790D01*
X024920Y008790D01*
X025022Y008833D01*
X025100Y008911D01*
X025143Y009013D01*
X025143Y009064D01*
X025182Y009104D01*
X025182Y009623D01*
X025218Y009659D01*
X025261Y009761D01*
X025261Y009834D01*
X025421Y009682D01*
X025421Y009682D01*
X025522Y009581D01*
X025585Y009515D01*
X025570Y009478D01*
X025570Y009368D01*
X025612Y009265D01*
X025691Y009187D01*
X025793Y009145D01*
X025904Y009145D01*
X026006Y009187D01*
X026085Y009265D01*
X026127Y009368D01*
X026127Y009433D01*
X026402Y009109D01*
X027042Y008259D01*
X027611Y007359D01*
X027868Y006894D01*
X028037Y006549D01*
X028345Y005841D01*
X028484Y005480D01*
X028590Y005179D01*
X028652Y004989D01*
X028285Y004623D01*
X026296Y004623D01*
X026422Y004749D01*
X026422Y004814D01*
X027072Y004814D01*
X027108Y004777D01*
X027210Y004735D01*
X027321Y004735D01*
X027424Y004777D01*
X027502Y004856D01*
X027544Y004958D01*
X027544Y005069D01*
X027502Y005171D01*
X027424Y005250D01*
X027321Y005292D01*
X027210Y005292D01*
X027108Y005250D01*
X027072Y005214D01*
X026305Y005214D01*
X026176Y005343D01*
X025828Y005343D01*
X025582Y005097D01*
X025582Y004749D01*
X025708Y004623D01*
X025296Y004623D01*
X025422Y004749D01*
X025422Y005097D01*
X025176Y005343D01*
X024828Y005343D01*
X024582Y005097D01*
X024582Y004749D01*
X024708Y004623D01*
X024296Y004623D01*
X024422Y004749D01*
X024422Y005097D01*
X024176Y005343D01*
X023828Y005343D01*
X023582Y005097D01*
X023582Y004749D01*
X023708Y004623D01*
X023296Y004623D01*
X023422Y004749D01*
X023422Y005097D01*
X023176Y005343D01*
X022865Y005343D01*
X022663Y005545D01*
X022663Y005839D01*
X022762Y005798D01*
X022813Y005798D01*
X022853Y005757D01*
X022970Y005640D01*
X024160Y005640D01*
X024332Y005812D01*
X024495Y005956D01*
X024505Y005956D01*
X025022Y005440D01*
X025158Y005440D01*
X025158Y005375D01*
X025228Y005305D01*
X025741Y005305D01*
X025811Y005375D01*
X025811Y005440D01*
X025895Y005440D01*
X025927Y005407D01*
X026029Y005365D01*
X026140Y005365D01*
X026242Y005407D01*
X026321Y005486D01*
X026363Y005588D01*
X026363Y005699D01*
X026321Y005801D01*
X026242Y005879D01*
X026186Y005903D01*
X026242Y005958D01*
X026284Y006061D01*
X026284Y006171D01*
X026242Y006274D01*
X026164Y006352D01*
X026061Y006394D01*
X026010Y006394D01*
X025986Y006418D01*
X025800Y006418D01*
X025750Y006468D01*
X025811Y006529D01*
X025811Y006908D01*
X025747Y006972D01*
X025811Y007037D01*
X025811Y007565D01*
X025741Y007635D01*
X025228Y007635D01*
X025158Y007565D01*
X025158Y007501D01*
X025029Y007501D01*
X025061Y007533D01*
X025103Y007635D01*
X025103Y007746D01*
X025061Y007848D01*
X024983Y007927D01*
X024880Y007969D01*
X024769Y007969D01*
X024667Y007927D01*
X024631Y007891D01*
X024344Y007891D01*
X024313Y007967D01*
X024235Y008045D01*
X024132Y008087D01*
X024021Y008087D01*
X023919Y008045D01*
X023841Y007967D01*
X023798Y007864D01*
X023798Y007753D01*
X023841Y007651D01*
X023919Y007573D01*
X024021Y007530D01*
X024072Y007530D01*
X024102Y007501D01*
X023933Y007501D01*
X023919Y007533D01*
X023841Y007612D01*
X023738Y007654D01*
X023628Y007654D01*
X023525Y007612D01*
X023447Y007533D01*
X023405Y007431D01*
X023405Y007320D01*
X023447Y007218D01*
X023522Y007143D01*
X023451Y007146D01*
X023447Y007143D01*
X023443Y007143D01*
X023387Y007087D01*
X023021Y006749D01*
X022958Y006749D01*
X022856Y006706D01*
X022778Y006628D01*
X022735Y006526D01*
X022735Y006415D01*
X022760Y006354D01*
X022663Y006314D01*
X022663Y006624D01*
X023098Y007059D01*
X023099Y007059D01*
X023156Y007117D01*
X023214Y007175D01*
X023214Y007176D01*
X023215Y007178D01*
X023214Y007259D01*
X023214Y007340D01*
X023213Y007342D01*
X023203Y008076D01*
X023250Y008124D01*
X023292Y008226D01*
X023292Y008337D01*
X023250Y008439D01*
X023214Y008475D01*
X023214Y008743D01*
X023224Y008733D01*
X023641Y008282D01*
X023641Y008277D01*
X023696Y008221D01*
X023750Y008163D01*
X023754Y008163D01*
X023758Y008160D01*
X023837Y008160D01*
X023915Y008157D01*
X023919Y008160D01*
X025648Y008160D01*
X026437Y007370D01*
X026437Y007037D01*
X026502Y006972D01*
X026437Y006908D01*
X026437Y006529D01*
X026498Y006468D01*
X026437Y006408D01*
X026437Y006029D01*
X026475Y005991D01*
X026459Y005982D01*
X026429Y005952D01*
X026408Y005916D01*
X026397Y005875D01*
X026397Y005683D01*
X026720Y005683D01*
X026720Y005596D01*
X026397Y005596D01*
X026397Y005404D01*
X026408Y005363D01*
X026429Y005327D01*
X026459Y005297D01*
X026495Y005276D01*
X026536Y005265D01*
X026720Y005265D01*
X026720Y005596D01*
X026807Y005596D01*
X026807Y005265D01*
X026992Y005265D01*
X027032Y005276D01*
X027069Y005297D01*
X027099Y005327D01*
X027120Y005363D01*
X027131Y005404D01*
X027131Y005596D01*
X026807Y005596D01*
X026807Y005683D01*
X027131Y005683D01*
X027131Y005875D01*
X027120Y005916D01*
X027099Y005952D01*
X027069Y005982D01*
X027053Y005991D01*
X027091Y006029D01*
X027109Y005935D02*
X028304Y005935D01*
X028354Y005817D02*
X027131Y005817D01*
X027131Y005698D02*
X028400Y005698D01*
X028445Y005580D02*
X027131Y005580D01*
X027131Y005461D02*
X028490Y005461D01*
X028484Y005480D02*
X028484Y005480D01*
X028532Y005343D02*
X027108Y005343D01*
X027083Y005224D02*
X026295Y005224D01*
X026176Y005343D02*
X026420Y005343D01*
X026397Y005461D02*
X026296Y005461D01*
X026360Y005580D02*
X026397Y005580D01*
X026397Y005698D02*
X026363Y005698D01*
X026397Y005817D02*
X026305Y005817D01*
X026219Y005935D02*
X026419Y005935D01*
X026437Y006054D02*
X026281Y006054D01*
X026284Y006172D02*
X026437Y006172D01*
X026437Y006291D02*
X026225Y006291D01*
X026438Y006409D02*
X025996Y006409D01*
X025810Y006528D02*
X026438Y006528D01*
X026437Y006646D02*
X025811Y006646D01*
X025811Y006765D02*
X026437Y006765D01*
X026437Y006883D02*
X025811Y006883D01*
X025776Y007002D02*
X026472Y007002D01*
X026437Y007120D02*
X025811Y007120D01*
X025811Y007239D02*
X026437Y007239D01*
X026437Y007357D02*
X025811Y007357D01*
X025811Y007476D02*
X026332Y007476D01*
X026213Y007594D02*
X025782Y007594D01*
X025976Y007831D02*
X025068Y007831D01*
X025103Y007713D02*
X026095Y007713D01*
X025858Y007950D02*
X024928Y007950D01*
X024722Y007950D02*
X024320Y007950D01*
X024179Y008068D02*
X025739Y008068D01*
X026068Y008305D02*
X027008Y008305D01*
X027088Y008187D02*
X026187Y008187D01*
X026305Y008068D02*
X027163Y008068D01*
X027238Y007950D02*
X026424Y007950D01*
X026542Y007831D02*
X027313Y007831D01*
X027388Y007713D02*
X026661Y007713D01*
X027062Y007594D02*
X027463Y007594D01*
X027538Y007476D02*
X027091Y007476D01*
X027091Y007357D02*
X027613Y007357D01*
X027678Y007239D02*
X027091Y007239D01*
X027091Y007120D02*
X027743Y007120D01*
X027808Y007002D02*
X027055Y007002D01*
X027091Y006883D02*
X027873Y006883D01*
X027931Y006765D02*
X027091Y006765D01*
X027091Y006646D02*
X027989Y006646D01*
X028046Y006528D02*
X027089Y006528D01*
X027089Y006409D02*
X028097Y006409D01*
X028149Y006291D02*
X027091Y006291D01*
X026807Y005580D02*
X026720Y005580D01*
X026720Y005461D02*
X026807Y005461D01*
X026807Y005343D02*
X026720Y005343D01*
X027449Y005224D02*
X028574Y005224D01*
X028614Y005106D02*
X027529Y005106D01*
X027544Y004987D02*
X028649Y004987D01*
X028531Y004869D02*
X027507Y004869D01*
X027357Y004750D02*
X028412Y004750D01*
X028294Y004632D02*
X026305Y004632D01*
X026422Y004750D02*
X027174Y004750D01*
X025828Y005343D02*
X025778Y005343D01*
X025709Y005224D02*
X025295Y005224D01*
X025190Y005343D02*
X025176Y005343D01*
X025000Y005461D02*
X022747Y005461D01*
X022663Y005580D02*
X024882Y005580D01*
X024763Y005698D02*
X024217Y005698D01*
X024336Y005817D02*
X024645Y005817D01*
X024526Y005935D02*
X024472Y005935D01*
X024176Y005343D02*
X024828Y005343D01*
X024709Y005224D02*
X024295Y005224D01*
X024413Y005106D02*
X024591Y005106D01*
X024582Y004987D02*
X024422Y004987D01*
X024422Y004869D02*
X024582Y004869D01*
X024582Y004750D02*
X024422Y004750D01*
X024305Y004632D02*
X024699Y004632D01*
X025305Y004632D02*
X025699Y004632D01*
X025582Y004750D02*
X025422Y004750D01*
X025422Y004869D02*
X025582Y004869D01*
X025582Y004987D02*
X025422Y004987D01*
X025413Y005106D02*
X025591Y005106D01*
X023828Y005343D02*
X023176Y005343D01*
X023295Y005224D02*
X023709Y005224D01*
X023591Y005106D02*
X023413Y005106D01*
X023422Y004987D02*
X023582Y004987D01*
X023582Y004869D02*
X023422Y004869D01*
X023422Y004750D02*
X023582Y004750D01*
X023699Y004632D02*
X023305Y004632D01*
X023238Y003923D02*
X023002Y003923D01*
X023486Y003439D01*
X027935Y003439D01*
X029301Y004805D01*
X030010Y003203D02*
X021478Y003203D01*
X021203Y003439D02*
X020809Y003439D01*
X020534Y003203D01*
X020255Y003210D02*
X019732Y003210D01*
X019742Y003219D02*
X020254Y003219D01*
X020255Y003221D01*
X020255Y003147D01*
X020297Y003045D01*
X020334Y003008D01*
X016895Y003008D01*
X016729Y002913D01*
X016729Y002913D01*
X016633Y002747D01*
X016633Y001237D01*
X010064Y001237D01*
X010064Y001536D01*
X009970Y001630D01*
X009849Y001630D01*
X009915Y001696D01*
X009915Y002583D01*
X009845Y002653D01*
X008958Y002653D01*
X008888Y002583D01*
X008888Y001696D01*
X008954Y001630D01*
X007704Y001630D01*
X007770Y001696D01*
X007770Y002583D01*
X007699Y002653D01*
X006813Y002653D01*
X006742Y002583D01*
X006742Y001696D01*
X006808Y001630D01*
X006688Y001630D01*
X006594Y001536D01*
X006594Y001237D01*
X003004Y001237D01*
X003004Y001246D01*
X003054Y002661D01*
X003058Y002718D01*
X003056Y002721D01*
X003056Y002724D01*
X003017Y002766D01*
X002980Y002809D01*
X002977Y002809D01*
X002974Y002812D01*
X002917Y002814D01*
X001134Y002946D01*
X001167Y003295D01*
X001395Y004477D01*
X003112Y004071D01*
X003167Y004056D01*
X003170Y004058D01*
X003173Y004057D01*
X003222Y004087D01*
X003272Y004116D01*
X003273Y004118D01*
X003275Y004120D01*
X003288Y004176D01*
X003663Y005541D01*
X003680Y005596D01*
X003678Y005599D01*
X003679Y005602D01*
X003651Y005652D01*
X003625Y005702D01*
X003621Y005703D01*
X003620Y005706D01*
X003565Y005721D01*
X001896Y006249D01*
X002417Y007552D01*
X002509Y007731D01*
X004096Y006934D01*
X004146Y006906D01*
X004149Y006907D01*
X004152Y006906D01*
X004206Y006924D01*
X004262Y006940D01*
X004263Y006943D01*
X004266Y006944D01*
X004292Y006995D01*
X004972Y008236D01*
X005002Y008285D01*
X005001Y008289D01*
X005002Y008291D01*
X004986Y008346D01*
X004973Y008402D01*
X004970Y008404D01*
X004969Y008407D01*
X004919Y008434D01*
X003401Y009344D01*
X003899Y010118D01*
X004413Y010773D01*
X005746Y009656D01*
X005788Y009617D01*
X005791Y009617D01*
X005794Y009615D01*
X005851Y009620D01*
X005908Y009623D01*
X005910Y009626D01*
X005913Y009626D01*
X005950Y009670D01*
X006898Y010721D01*
X006938Y010762D01*
X006938Y010766D01*
X006940Y010768D01*
X006937Y010825D01*
X006936Y010883D01*
X006934Y010885D01*
X006934Y010888D01*
X006891Y010926D01*
X005638Y012147D01*
X005840Y012358D01*
X006908Y013284D01*
X007954Y011881D01*
X007987Y011834D01*
X007990Y011833D01*
X007991Y011831D01*
X008048Y011823D01*
X008105Y011812D01*
X008107Y011814D01*
X008110Y011814D01*
X008156Y011848D01*
X009321Y012653D01*
X009369Y012684D01*
X009370Y012687D01*
X009372Y012689D01*
X009383Y012745D01*
X009395Y012801D01*
X009393Y012804D01*
X009394Y012807D01*
X009361Y012854D01*
X008420Y014335D01*
X009454Y014932D01*
X009838Y015107D01*
X010535Y013490D01*
X010556Y013437D01*
X010559Y013436D01*
X010560Y013433D01*
X010614Y013412D01*
X010666Y013389D01*
X010669Y013390D01*
X010672Y013389D01*
X010725Y013411D01*
X012044Y013925D01*
X012098Y013944D01*
X012099Y013946D01*
X012102Y013948D01*
X012126Y014000D01*
X012151Y014052D01*
X012149Y014055D01*
X012151Y014058D01*
X012130Y014111D01*
X011545Y015805D01*
X012205Y016033D01*
X013646Y016383D01*
X015113Y016594D01*
X015113Y016137D01*
X015513Y016137D01*
X015513Y016017D01*
X015113Y016017D01*
X015113Y015255D01*
X015124Y015215D01*
X015145Y015178D01*
X011762Y015178D01*
X011803Y015060D02*
X016279Y015060D01*
X016279Y015069D02*
X016279Y014958D01*
X016321Y014856D01*
X016357Y014820D01*
X016357Y014800D01*
X016251Y014800D01*
X016193Y014858D01*
X015740Y014858D01*
X015669Y014788D01*
X015669Y014413D01*
X015714Y014368D01*
X015691Y014354D01*
X015661Y014324D01*
X015640Y014288D01*
X015629Y014247D01*
X015629Y014097D01*
X015958Y014097D01*
X015958Y014079D01*
X015975Y014079D01*
X015975Y013791D01*
X016165Y013791D01*
X016205Y013801D01*
X016242Y013823D01*
X016272Y013852D01*
X016293Y013889D01*
X016304Y013929D01*
X016304Y014079D01*
X015975Y014079D01*
X015975Y014097D01*
X016304Y014097D01*
X016304Y014247D01*
X016293Y014288D01*
X016272Y014324D01*
X016242Y014354D01*
X016219Y014368D01*
X016251Y014400D01*
X016863Y014400D01*
X016919Y014344D01*
X016851Y014276D01*
X016851Y013976D01*
X016750Y013875D01*
X016750Y013875D01*
X016633Y013758D01*
X016633Y013618D01*
X016626Y013618D01*
X016557Y013549D01*
X016489Y013618D01*
X016114Y013618D01*
X016043Y013547D01*
X016043Y013383D01*
X015897Y013383D01*
X015839Y013441D01*
X015385Y013441D01*
X015317Y013372D01*
X015249Y013441D01*
X014795Y013441D01*
X014725Y013370D01*
X014725Y012995D01*
X014793Y012927D01*
X014737Y012871D01*
X014637Y012871D01*
X014605Y012904D01*
X014628Y012917D01*
X014658Y012947D01*
X014679Y012983D01*
X014690Y013024D01*
X014690Y013174D01*
X014361Y013174D01*
X014361Y013192D01*
X014344Y013192D01*
X014344Y013481D01*
X014154Y013481D01*
X014113Y013470D01*
X014077Y013449D01*
X014047Y013419D01*
X014026Y013382D01*
X014018Y013351D01*
X014009Y013382D01*
X013988Y013419D01*
X013959Y013449D01*
X013922Y013470D01*
X013881Y013481D01*
X013692Y013481D01*
X013692Y013192D01*
X013674Y013192D01*
X013674Y013481D01*
X013485Y013481D01*
X013444Y013470D01*
X013408Y013449D01*
X013378Y013419D01*
X013357Y013382D01*
X013346Y013342D01*
X013346Y013192D01*
X013674Y013192D01*
X013674Y013174D01*
X013346Y013174D01*
X013346Y013024D01*
X013357Y012983D01*
X013378Y012947D01*
X013408Y012917D01*
X013431Y012904D01*
X013386Y012859D01*
X013386Y012484D01*
X013456Y012413D01*
X013910Y012413D01*
X013968Y012471D01*
X014068Y012471D01*
X014126Y012413D01*
X014579Y012413D01*
X014637Y012471D01*
X014737Y012471D01*
X014795Y012413D01*
X014891Y012413D01*
X014891Y012069D01*
X014926Y012034D01*
X014765Y012034D01*
X014697Y012102D01*
X014244Y012102D01*
X014186Y012044D01*
X014000Y012044D01*
X014000Y012150D01*
X013930Y012220D01*
X013397Y012220D01*
X013327Y012150D01*
X013327Y011397D01*
X013207Y011277D01*
X013069Y011277D01*
X013094Y011302D01*
X013094Y012150D01*
X013024Y012220D01*
X012492Y012220D01*
X012421Y012150D01*
X012421Y011302D01*
X012447Y011277D01*
X012388Y011277D01*
X012364Y011300D01*
X012366Y011302D01*
X012366Y011677D01*
X012321Y011722D01*
X012344Y011736D01*
X012374Y011766D01*
X012395Y011802D01*
X012406Y011843D01*
X012406Y011993D01*
X012078Y011993D01*
X012078Y012011D01*
X012060Y012011D01*
X012060Y012300D01*
X011871Y012300D01*
X011830Y012289D01*
X011794Y012268D01*
X011764Y012238D01*
X011743Y012201D01*
X011732Y012161D01*
X011732Y012011D01*
X012060Y012011D01*
X012060Y011993D01*
X011732Y011993D01*
X011732Y011843D01*
X011743Y011802D01*
X011764Y011766D01*
X011794Y011736D01*
X011817Y011722D01*
X011772Y011677D01*
X011772Y011302D01*
X011842Y011232D01*
X011869Y011232D01*
X011869Y011230D01*
X012105Y010994D01*
X012222Y010877D01*
X012807Y010877D01*
X012693Y010763D01*
X012492Y010763D01*
X012434Y010706D01*
X012354Y010706D01*
X012296Y010763D01*
X011842Y010763D01*
X011772Y010693D01*
X011772Y010318D01*
X011817Y010273D01*
X011794Y010260D01*
X011764Y010230D01*
X011743Y010193D01*
X011732Y010153D01*
X011732Y010003D01*
X012060Y010003D01*
X012060Y009985D01*
X011732Y009985D01*
X011732Y009835D01*
X011733Y009829D01*
X011570Y009829D01*
X011596Y009856D01*
X011639Y009958D01*
X011639Y010069D01*
X011596Y010171D01*
X011518Y010250D01*
X011416Y010292D01*
X011407Y010292D01*
X011412Y010297D01*
X011412Y010438D01*
X011772Y010438D01*
X011772Y010320D02*
X011412Y010320D01*
X011412Y010438D02*
X011313Y010538D01*
X011269Y010538D01*
X011203Y010604D01*
X011101Y010646D01*
X010990Y010646D01*
X010969Y010638D01*
X010969Y010738D01*
X010927Y010841D01*
X010849Y010919D01*
X010746Y010961D01*
X010636Y010961D01*
X010533Y010919D01*
X010455Y010841D01*
X010413Y010738D01*
X010413Y010627D01*
X010455Y010525D01*
X010521Y010459D01*
X010521Y009431D01*
X010526Y009426D01*
X009978Y009426D01*
X009861Y009309D01*
X009781Y009229D01*
X009231Y009229D01*
X009195Y009265D01*
X009093Y009308D01*
X008982Y009308D01*
X008880Y009265D01*
X008801Y009187D01*
X008759Y009085D01*
X008759Y008974D01*
X008801Y008872D01*
X008880Y008793D01*
X008982Y008751D01*
X009093Y008751D01*
X009195Y008793D01*
X009231Y008829D01*
X009940Y008829D01*
X009940Y008816D01*
X009983Y008714D01*
X010061Y008636D01*
X010163Y008593D01*
X010197Y008593D01*
X010401Y008363D01*
X010018Y008363D01*
X009900Y008246D01*
X009742Y008087D01*
X009691Y008087D01*
X009588Y008045D01*
X009510Y007967D01*
X009468Y007864D01*
X009468Y007753D01*
X009510Y007651D01*
X009546Y007615D01*
X009191Y007615D01*
X009074Y007498D01*
X008582Y007006D01*
X008444Y006868D01*
X006278Y004703D01*
X006278Y002301D01*
X006215Y002238D01*
X006195Y002258D01*
X006264Y002326D01*
X006264Y002701D01*
X006193Y002771D01*
X005740Y002771D01*
X005682Y002714D01*
X005628Y002714D01*
X005511Y002596D01*
X005411Y002497D01*
X005360Y002497D01*
X005258Y002454D01*
X005179Y002376D01*
X005137Y002274D01*
X005137Y002163D01*
X005179Y002061D01*
X005258Y001982D01*
X005360Y001940D01*
X005471Y001940D01*
X005573Y001982D01*
X005651Y002061D01*
X005669Y002104D01*
X005669Y001814D01*
X005740Y001744D01*
X006193Y001744D01*
X006251Y001802D01*
X006345Y001802D01*
X006561Y002018D01*
X006678Y002135D01*
X006678Y004537D01*
X008727Y006585D01*
X008864Y006723D01*
X009357Y007215D01*
X013017Y007215D01*
X013053Y007179D01*
X013155Y007137D01*
X013266Y007137D01*
X013289Y007146D01*
X011854Y005711D01*
X011833Y005762D01*
X011754Y005840D01*
X011652Y005883D01*
X011541Y005883D01*
X011439Y005840D01*
X011360Y005762D01*
X011318Y005659D01*
X011318Y005608D01*
X011003Y005293D01*
X011003Y003115D01*
X010966Y003203D01*
X010888Y003281D01*
X010786Y003323D01*
X010675Y003323D01*
X010573Y003281D01*
X010494Y003203D01*
X010458Y003115D01*
X010458Y006829D01*
X010458Y006829D01*
X010458Y006880D01*
X010415Y006982D01*
X010337Y007061D01*
X010235Y007103D01*
X010124Y007103D01*
X010021Y007061D01*
X009943Y006982D01*
X009901Y006880D01*
X009901Y006769D01*
X009943Y006667D01*
X010021Y006589D01*
X010058Y006573D01*
X010058Y004070D01*
X009959Y004111D01*
X009908Y004111D01*
X009356Y004663D01*
X009356Y004854D01*
X009382Y004854D01*
X009453Y004924D01*
X009453Y005299D01*
X009384Y005368D01*
X009453Y005436D01*
X009453Y005811D01*
X009382Y005882D01*
X009356Y005882D01*
X009356Y006159D01*
X009355Y006160D01*
X009355Y006211D01*
X009313Y006313D01*
X009235Y006391D01*
X009132Y006434D01*
X009021Y006434D01*
X008919Y006391D01*
X008841Y006313D01*
X008798Y006211D01*
X008798Y006100D01*
X008841Y005998D01*
X008919Y005919D01*
X008956Y005904D01*
X008956Y005882D01*
X008929Y005882D01*
X008858Y005811D01*
X008858Y005436D01*
X008927Y005368D01*
X008858Y005299D01*
X008858Y004924D01*
X008929Y004854D01*
X008956Y004854D01*
X008956Y004498D01*
X009625Y003828D01*
X009625Y003777D01*
X009668Y003675D01*
X009746Y003596D01*
X009848Y003554D01*
X009959Y003554D01*
X010058Y003595D01*
X010058Y001584D01*
X010175Y001467D01*
X010255Y001387D01*
X010372Y001270D01*
X011601Y001270D01*
X011857Y001526D01*
X016120Y001526D01*
X016203Y001609D01*
X016302Y001684D01*
X016317Y001684D01*
X016360Y001728D01*
X016410Y001765D01*
X016412Y001779D01*
X016422Y001789D01*
X016422Y001851D01*
X016431Y001912D01*
X016422Y001924D01*
X016422Y002616D01*
X016829Y003023D01*
X019545Y003023D01*
X019651Y003128D01*
X019742Y003219D01*
X019614Y003091D02*
X020278Y003091D01*
X020179Y003399D02*
X019667Y003399D01*
X019471Y003203D01*
X016754Y003203D01*
X016242Y002691D01*
X016242Y001864D01*
X016085Y001746D01*
X016045Y001706D01*
X011754Y001706D01*
X011762Y001432D02*
X016633Y001432D01*
X016633Y001314D02*
X011644Y001314D01*
X012629Y001886D02*
X012662Y001966D01*
X012662Y002077D01*
X012620Y002179D01*
X012542Y002257D01*
X012439Y002300D01*
X012388Y002300D01*
X012290Y002399D01*
X012235Y002399D01*
X012203Y002431D01*
X012226Y002445D01*
X012256Y002474D01*
X012277Y002511D01*
X012288Y002552D01*
X012288Y002701D01*
X011960Y002701D01*
X011960Y002719D01*
X012288Y002719D01*
X012288Y002869D01*
X012277Y002910D01*
X012256Y002946D01*
X012226Y002976D01*
X012190Y002997D01*
X012149Y003008D01*
X011960Y003008D01*
X011960Y002719D01*
X011942Y002719D01*
X011942Y003008D01*
X011850Y003008D01*
X011875Y003068D01*
X011875Y003179D01*
X011833Y003281D01*
X011754Y003360D01*
X011652Y003402D01*
X011541Y003402D01*
X011439Y003360D01*
X011403Y003324D01*
X011403Y003750D01*
X011439Y003714D01*
X011541Y003672D01*
X011652Y003672D01*
X011754Y003714D01*
X011790Y003751D01*
X012538Y003751D01*
X012538Y002726D01*
X012655Y002609D01*
X012866Y002398D01*
X012835Y002398D01*
X012795Y002387D01*
X012758Y002366D01*
X012728Y002336D01*
X012707Y002300D01*
X012696Y002259D01*
X012696Y002070D01*
X012985Y002070D01*
X012985Y002052D01*
X012696Y002052D01*
X012696Y001886D01*
X012629Y001886D01*
X012637Y001906D02*
X012696Y001906D01*
X012696Y002025D02*
X012662Y002025D01*
X012635Y002143D02*
X012696Y002143D01*
X012697Y002262D02*
X012532Y002262D01*
X012308Y002380D02*
X012782Y002380D01*
X012766Y002499D02*
X012270Y002499D01*
X012288Y002617D02*
X012647Y002617D01*
X012538Y002736D02*
X012288Y002736D01*
X012288Y002854D02*
X012538Y002854D01*
X012538Y002973D02*
X012230Y002973D01*
X011960Y002973D02*
X011942Y002973D01*
X011942Y002854D02*
X011960Y002854D01*
X011960Y002736D02*
X011942Y002736D01*
X011875Y003091D02*
X012538Y003091D01*
X012538Y003210D02*
X011862Y003210D01*
X011786Y003328D02*
X012538Y003328D01*
X012538Y003447D02*
X011403Y003447D01*
X011403Y003565D02*
X012538Y003565D01*
X012538Y003684D02*
X011679Y003684D01*
X011514Y003684D02*
X011403Y003684D01*
X011403Y003328D02*
X011407Y003328D01*
X011003Y003328D02*
X010458Y003328D01*
X010458Y003210D02*
X010501Y003210D01*
X010458Y003447D02*
X011003Y003447D01*
X011003Y003565D02*
X010458Y003565D01*
X010458Y003684D02*
X011003Y003684D01*
X011003Y003802D02*
X010458Y003802D01*
X010458Y003921D02*
X011003Y003921D01*
X011003Y004039D02*
X010458Y004039D01*
X010458Y004158D02*
X011003Y004158D01*
X011003Y004276D02*
X010458Y004276D01*
X010458Y004395D02*
X011003Y004395D01*
X011003Y004513D02*
X010458Y004513D01*
X010458Y004632D02*
X011003Y004632D01*
X011003Y004750D02*
X010458Y004750D01*
X010458Y004869D02*
X011003Y004869D01*
X011003Y004987D02*
X010458Y004987D01*
X010458Y005106D02*
X011003Y005106D01*
X011003Y005224D02*
X010458Y005224D01*
X010458Y005343D02*
X011052Y005343D01*
X011171Y005461D02*
X010458Y005461D01*
X010458Y005580D02*
X011289Y005580D01*
X011334Y005698D02*
X010458Y005698D01*
X010458Y005817D02*
X011415Y005817D01*
X011778Y005817D02*
X011959Y005817D01*
X012078Y005935D02*
X010458Y005935D01*
X010458Y006054D02*
X012196Y006054D01*
X012315Y006172D02*
X010458Y006172D01*
X010458Y006291D02*
X012433Y006291D01*
X012552Y006409D02*
X010458Y006409D01*
X010458Y006528D02*
X012670Y006528D01*
X012789Y006646D02*
X010458Y006646D01*
X010458Y006765D02*
X012907Y006765D01*
X013026Y006883D02*
X010456Y006883D01*
X010396Y007002D02*
X013144Y007002D01*
X013263Y007120D02*
X009261Y007120D01*
X009143Y007002D02*
X009962Y007002D01*
X009902Y006883D02*
X009024Y006883D01*
X008906Y006765D02*
X009903Y006765D01*
X009964Y006646D02*
X008787Y006646D01*
X008727Y006585D02*
X008727Y006585D01*
X008669Y006528D02*
X010058Y006528D01*
X010058Y006409D02*
X009192Y006409D01*
X009322Y006291D02*
X010058Y006291D01*
X010058Y006172D02*
X009355Y006172D01*
X009356Y006054D02*
X010058Y006054D01*
X010058Y005935D02*
X009356Y005935D01*
X009447Y005817D02*
X010058Y005817D01*
X010058Y005698D02*
X009453Y005698D01*
X009453Y005580D02*
X010058Y005580D01*
X010058Y005461D02*
X009453Y005461D01*
X009410Y005343D02*
X010058Y005343D01*
X010058Y005224D02*
X009453Y005224D01*
X009453Y005106D02*
X010058Y005106D01*
X010058Y004987D02*
X009453Y004987D01*
X009397Y004869D02*
X010058Y004869D01*
X010058Y004750D02*
X009356Y004750D01*
X009387Y004632D02*
X010058Y004632D01*
X010058Y004513D02*
X009506Y004513D01*
X009624Y004395D02*
X010058Y004395D01*
X010058Y004276D02*
X009743Y004276D01*
X009861Y004158D02*
X010058Y004158D01*
X009625Y003802D02*
X006678Y003802D01*
X006678Y003684D02*
X007263Y003684D01*
X007301Y003699D02*
X007166Y003643D01*
X007063Y003540D01*
X007007Y003405D01*
X007007Y003259D01*
X007063Y003125D01*
X007166Y003022D01*
X007301Y002966D01*
X007447Y002966D01*
X007582Y003022D01*
X007685Y003125D01*
X007741Y003259D01*
X007741Y003405D01*
X007685Y003540D01*
X007582Y003643D01*
X007447Y003699D01*
X007301Y003699D01*
X007485Y003684D02*
X009173Y003684D01*
X009211Y003699D02*
X009076Y003643D01*
X008973Y003540D01*
X008917Y003405D01*
X008917Y003259D01*
X008973Y003125D01*
X009076Y003022D01*
X009211Y002966D01*
X009356Y002966D01*
X009491Y003022D01*
X009594Y003125D01*
X009650Y003259D01*
X009650Y003405D01*
X009594Y003540D01*
X009491Y003643D01*
X009356Y003699D01*
X009211Y003699D01*
X009394Y003684D02*
X009664Y003684D01*
X009569Y003565D02*
X009822Y003565D01*
X009986Y003565D02*
X010058Y003565D01*
X010058Y003447D02*
X009633Y003447D01*
X009650Y003328D02*
X010058Y003328D01*
X010058Y003210D02*
X009630Y003210D01*
X009561Y003091D02*
X010058Y003091D01*
X010058Y002973D02*
X009373Y002973D01*
X009194Y002973D02*
X007463Y002973D01*
X007285Y002973D02*
X006678Y002973D01*
X006678Y003091D02*
X007097Y003091D01*
X007028Y003210D02*
X006678Y003210D01*
X006678Y003328D02*
X007007Y003328D01*
X007024Y003447D02*
X006678Y003447D01*
X006678Y003565D02*
X007088Y003565D01*
X006678Y003921D02*
X009533Y003921D01*
X009414Y004039D02*
X006678Y004039D01*
X006678Y004158D02*
X009296Y004158D01*
X009177Y004276D02*
X006678Y004276D01*
X006678Y004395D02*
X009059Y004395D01*
X008956Y004513D02*
X006678Y004513D01*
X006773Y004632D02*
X008956Y004632D01*
X008956Y004750D02*
X006891Y004750D01*
X007010Y004869D02*
X008914Y004869D01*
X008858Y004987D02*
X007128Y004987D01*
X007247Y005106D02*
X008858Y005106D01*
X008858Y005224D02*
X007365Y005224D01*
X007484Y005343D02*
X008901Y005343D01*
X008858Y005461D02*
X007602Y005461D01*
X007721Y005580D02*
X008858Y005580D01*
X008858Y005698D02*
X007839Y005698D01*
X007958Y005817D02*
X008864Y005817D01*
X008903Y005935D02*
X008076Y005935D01*
X008195Y006054D02*
X008818Y006054D01*
X008798Y006172D02*
X008313Y006172D01*
X008432Y006291D02*
X008831Y006291D01*
X008962Y006409D02*
X008550Y006409D01*
X008103Y006528D02*
X002007Y006528D01*
X002054Y006646D02*
X008222Y006646D01*
X008340Y006765D02*
X002102Y006765D01*
X002149Y006883D02*
X008459Y006883D01*
X008444Y006868D02*
X008444Y006868D01*
X008577Y007002D02*
X004295Y007002D01*
X004360Y007120D02*
X008696Y007120D01*
X008814Y007239D02*
X004425Y007239D01*
X004490Y007357D02*
X007757Y007357D01*
X007777Y007337D02*
X007880Y007294D01*
X007990Y007294D01*
X008093Y007337D01*
X008129Y007373D01*
X008529Y007373D01*
X008565Y007337D01*
X008667Y007294D01*
X008778Y007294D01*
X008880Y007337D01*
X008959Y007415D01*
X009001Y007517D01*
X009001Y007628D01*
X008959Y007730D01*
X008880Y007809D01*
X008778Y007851D01*
X008667Y007851D01*
X008565Y007809D01*
X008529Y007773D01*
X008129Y007773D01*
X008093Y007809D01*
X007990Y007851D01*
X007880Y007851D01*
X007777Y007809D01*
X007699Y007730D01*
X007657Y007628D01*
X007657Y007517D01*
X007699Y007415D01*
X007777Y007337D01*
X007674Y007476D02*
X004555Y007476D01*
X004620Y007594D02*
X007657Y007594D01*
X007692Y007713D02*
X004685Y007713D01*
X004750Y007831D02*
X007831Y007831D01*
X008039Y007831D02*
X008619Y007831D01*
X008826Y007831D02*
X009468Y007831D01*
X009485Y007713D02*
X008966Y007713D01*
X009001Y007594D02*
X009170Y007594D01*
X009051Y007476D02*
X008984Y007476D01*
X008933Y007357D02*
X008901Y007357D01*
X008544Y007357D02*
X008113Y007357D01*
X009503Y007950D02*
X004815Y007950D01*
X004880Y008068D02*
X009644Y008068D01*
X009841Y008187D02*
X004945Y008187D01*
X004999Y008305D02*
X009959Y008305D01*
X010036Y008661D02*
X004541Y008661D01*
X004344Y008779D02*
X008914Y008779D01*
X008791Y008898D02*
X004146Y008898D01*
X003949Y009016D02*
X008759Y009016D01*
X008780Y009135D02*
X003751Y009135D01*
X003554Y009253D02*
X008867Y009253D01*
X009207Y009253D02*
X009805Y009253D01*
X009924Y009372D02*
X003419Y009372D01*
X003495Y009490D02*
X010521Y009490D01*
X010521Y009609D02*
X003571Y009609D01*
X003647Y009727D02*
X005660Y009727D01*
X005519Y009846D02*
X003723Y009846D01*
X003800Y009964D02*
X005378Y009964D01*
X005236Y010083D02*
X003876Y010083D01*
X003964Y010201D02*
X005095Y010201D01*
X004954Y010320D02*
X004057Y010320D01*
X004150Y010438D02*
X004812Y010438D01*
X004671Y010557D02*
X004243Y010557D01*
X004337Y010675D02*
X004530Y010675D01*
X006002Y009727D02*
X010521Y009727D01*
X010521Y009846D02*
X006108Y009846D01*
X006215Y009964D02*
X010521Y009964D01*
X010521Y010083D02*
X006322Y010083D01*
X006429Y010201D02*
X010521Y010201D01*
X010521Y010320D02*
X006536Y010320D01*
X006643Y010438D02*
X010521Y010438D01*
X010442Y010557D02*
X006749Y010557D01*
X006856Y010675D02*
X010413Y010675D01*
X010435Y010794D02*
X006939Y010794D01*
X006907Y010912D02*
X010526Y010912D01*
X010856Y010912D02*
X012187Y010912D01*
X012068Y011031D02*
X006785Y011031D01*
X006663Y011149D02*
X011950Y011149D01*
X011807Y011268D02*
X006541Y011268D01*
X006420Y011386D02*
X011772Y011386D01*
X011772Y011505D02*
X006298Y011505D01*
X006176Y011623D02*
X011772Y011623D01*
X011788Y011742D02*
X006055Y011742D01*
X005933Y011860D02*
X007969Y011860D01*
X007881Y011979D02*
X005812Y011979D01*
X005690Y012097D02*
X007793Y012097D01*
X007705Y012216D02*
X005704Y012216D01*
X005817Y012334D02*
X007616Y012334D01*
X007528Y012453D02*
X005949Y012453D01*
X006085Y012571D02*
X007439Y012571D01*
X007351Y012690D02*
X006222Y012690D01*
X006359Y012808D02*
X007263Y012808D01*
X007174Y012927D02*
X006496Y012927D01*
X006632Y013045D02*
X007086Y013045D01*
X006997Y013164D02*
X006769Y013164D01*
X006906Y013282D02*
X006909Y013282D01*
X008487Y014230D02*
X010217Y014230D01*
X010268Y014112D02*
X008562Y014112D01*
X008638Y013993D02*
X010319Y013993D01*
X010370Y013875D02*
X008713Y013875D01*
X008788Y013756D02*
X010421Y013756D01*
X010472Y013638D02*
X008864Y013638D01*
X008939Y013519D02*
X010523Y013519D01*
X010639Y013401D02*
X009014Y013401D01*
X009090Y013282D02*
X013346Y013282D01*
X013346Y013164D02*
X009165Y013164D01*
X009240Y013045D02*
X013346Y013045D01*
X013398Y012927D02*
X009316Y012927D01*
X009394Y012808D02*
X013386Y012808D01*
X013386Y012690D02*
X009373Y012690D01*
X009202Y012571D02*
X013386Y012571D01*
X013417Y012453D02*
X009030Y012453D01*
X008859Y012334D02*
X014891Y012334D01*
X014891Y012216D02*
X013934Y012216D01*
X014000Y012097D02*
X014239Y012097D01*
X014086Y012453D02*
X013949Y012453D01*
X013393Y012216D02*
X013029Y012216D01*
X013094Y012097D02*
X013327Y012097D01*
X013327Y011979D02*
X013094Y011979D01*
X013094Y011860D02*
X013327Y011860D01*
X013327Y011742D02*
X013094Y011742D01*
X013094Y011623D02*
X013327Y011623D01*
X013327Y011505D02*
X013094Y011505D01*
X013094Y011386D02*
X013316Y011386D01*
X014156Y010912D02*
X014420Y010912D01*
X014400Y010892D02*
X014311Y010803D01*
X014244Y010803D01*
X014173Y010733D01*
X014173Y010358D01*
X014218Y010312D01*
X014195Y010299D01*
X014165Y010269D01*
X014144Y010233D01*
X014133Y010192D01*
X014133Y010042D01*
X014462Y010042D01*
X014462Y010024D01*
X014133Y010024D01*
X014133Y009874D01*
X014144Y009834D01*
X014147Y009829D01*
X013983Y009829D01*
X014000Y009846D01*
X014000Y010693D01*
X013968Y010725D01*
X014318Y011075D01*
X014697Y011075D01*
X014726Y011103D01*
X014773Y011103D01*
X014773Y011077D01*
X015061Y011077D01*
X015061Y011077D01*
X014773Y011077D01*
X014773Y011050D01*
X014558Y011050D01*
X014400Y010892D01*
X014274Y011031D02*
X014538Y011031D01*
X014234Y010794D02*
X014037Y010794D01*
X014000Y010675D02*
X014173Y010675D01*
X014173Y010557D02*
X014000Y010557D01*
X014000Y010438D02*
X014173Y010438D01*
X014211Y010320D02*
X014000Y010320D01*
X014000Y010201D02*
X014136Y010201D01*
X014133Y010083D02*
X014000Y010083D01*
X014000Y009964D02*
X014133Y009964D01*
X014141Y009846D02*
X014000Y009846D01*
X014479Y010024D02*
X014479Y010042D01*
X014808Y010042D01*
X014808Y010192D01*
X014797Y010233D01*
X014776Y010269D01*
X014746Y010299D01*
X014723Y010312D01*
X014768Y010358D01*
X014768Y010710D01*
X014813Y010710D01*
X014813Y010574D01*
X014883Y010504D01*
X015236Y010504D01*
X015236Y010151D01*
X015245Y010142D01*
X015245Y009926D01*
X015148Y009829D01*
X014794Y009829D01*
X014797Y009834D01*
X014808Y009874D01*
X014808Y010024D01*
X014479Y010024D01*
X014808Y010083D02*
X015245Y010083D01*
X015236Y010201D02*
X014805Y010201D01*
X014730Y010320D02*
X015236Y010320D01*
X015236Y010438D02*
X014768Y010438D01*
X014768Y010557D02*
X014831Y010557D01*
X014813Y010675D02*
X014768Y010675D01*
X015848Y011038D02*
X016033Y011038D01*
X016033Y011068D01*
X016080Y011115D01*
X015848Y011115D01*
X015848Y011038D01*
X016166Y011201D02*
X016166Y011294D01*
X016155Y011335D01*
X016152Y011340D01*
X016194Y011340D01*
X016273Y011418D01*
X016309Y011454D01*
X016309Y011439D01*
X016301Y011431D01*
X016280Y011394D01*
X016269Y011353D01*
X016269Y011273D01*
X016269Y011247D01*
X016211Y011247D01*
X016166Y011201D01*
X016166Y011268D02*
X016269Y011268D01*
X016269Y011273D02*
X016557Y011273D01*
X016557Y011273D01*
X016557Y011273D01*
X016845Y011273D01*
X016845Y011193D01*
X016834Y011153D01*
X016813Y011116D01*
X016805Y011108D01*
X016805Y011050D01*
X016982Y011050D01*
X017184Y010847D01*
X017145Y010942D01*
X017145Y011053D01*
X017187Y011155D01*
X017266Y011234D01*
X017368Y011276D01*
X017479Y011276D01*
X017530Y011255D01*
X017570Y011295D01*
X017945Y011295D01*
X017990Y011250D01*
X018004Y011273D01*
X018034Y011303D01*
X018070Y011324D01*
X018111Y011335D01*
X018261Y011335D01*
X018261Y011007D01*
X018279Y011007D01*
X018568Y011007D01*
X018568Y011196D01*
X018557Y011237D01*
X018536Y011273D01*
X018506Y011303D01*
X018469Y011324D01*
X018429Y011335D01*
X018279Y011335D01*
X018279Y011007D01*
X018279Y010989D01*
X018568Y010989D01*
X018568Y010800D01*
X018557Y010759D01*
X018536Y010722D01*
X018506Y010693D01*
X018469Y010672D01*
X018429Y010661D01*
X018366Y010661D01*
X018371Y010645D01*
X018371Y010455D01*
X018082Y010455D01*
X018082Y010438D01*
X018641Y010438D01*
X018581Y010371D02*
X018470Y010371D01*
X018371Y010329D01*
X018371Y010438D01*
X018082Y010438D01*
X018082Y010109D01*
X018232Y010109D01*
X018247Y010114D01*
X018247Y010037D01*
X018290Y009935D01*
X018326Y009899D01*
X018326Y009033D01*
X018324Y009032D01*
X018273Y009032D01*
X018171Y008990D01*
X018093Y008911D01*
X018050Y008809D01*
X018050Y008698D01*
X018093Y008596D01*
X018171Y008518D01*
X018273Y008475D01*
X018384Y008475D01*
X018486Y008518D01*
X018565Y008596D01*
X018607Y008698D01*
X018607Y008749D01*
X018641Y008783D01*
X018641Y008167D01*
X018403Y007930D01*
X017769Y007930D01*
X017857Y007966D01*
X017935Y008045D01*
X017977Y008147D01*
X017977Y008258D01*
X017935Y008360D01*
X017857Y008439D01*
X017754Y008481D01*
X017643Y008481D01*
X017541Y008439D01*
X017505Y008403D01*
X015748Y008403D01*
X015773Y008462D01*
X015773Y008573D01*
X015730Y008675D01*
X015652Y008753D01*
X015550Y008796D01*
X015439Y008796D01*
X015344Y008757D01*
X015000Y008757D01*
X015025Y008816D01*
X015025Y008927D01*
X014982Y009030D01*
X014916Y009095D01*
X015486Y009095D01*
X015585Y009195D01*
X015927Y009537D01*
X015936Y009529D01*
X016099Y009365D01*
X016124Y009305D01*
X016203Y009226D01*
X016305Y009184D01*
X016416Y009184D01*
X016518Y009226D01*
X016596Y009305D01*
X016639Y009407D01*
X016639Y009518D01*
X016596Y009620D01*
X016518Y009698D01*
X016416Y009741D01*
X016305Y009741D01*
X016234Y009711D01*
X016176Y009769D01*
X016176Y010081D01*
X016312Y010081D01*
X016382Y010151D01*
X016382Y010158D01*
X016605Y010158D01*
X016663Y010101D01*
X016663Y009707D01*
X016712Y009658D01*
X016712Y009564D01*
X016754Y009462D01*
X016832Y009384D01*
X016935Y009341D01*
X017046Y009341D01*
X017148Y009384D01*
X017226Y009462D01*
X017269Y009564D01*
X017269Y009675D01*
X017226Y009778D01*
X017148Y009856D01*
X017046Y009898D01*
X017003Y009898D01*
X017003Y010241D01*
X016903Y010341D01*
X016761Y010483D01*
X016783Y010496D01*
X016813Y010526D01*
X016834Y010562D01*
X016845Y010603D01*
X016845Y010683D01*
X016845Y010706D01*
X017017Y010534D01*
X017117Y010434D01*
X017303Y010434D01*
X017303Y010220D01*
X017374Y010149D01*
X017749Y010149D01*
X017794Y010194D01*
X017807Y010171D01*
X017837Y010141D01*
X017873Y010120D01*
X017914Y010109D01*
X018064Y010109D01*
X018064Y010438D01*
X018082Y010438D01*
X018082Y010320D02*
X018064Y010320D01*
X018064Y010201D02*
X018082Y010201D01*
X018247Y010083D02*
X017003Y010083D01*
X017003Y010201D02*
X017322Y010201D01*
X017303Y010320D02*
X016925Y010320D01*
X016806Y010438D02*
X017113Y010438D01*
X016994Y010557D02*
X016831Y010557D01*
X016845Y010675D02*
X016876Y010675D01*
X016845Y010683D02*
X016557Y010683D01*
X016845Y010683D01*
X016557Y010683D02*
X016557Y010683D01*
X016832Y011149D02*
X017185Y011149D01*
X017145Y011031D02*
X017001Y011031D01*
X017120Y010912D02*
X017157Y010912D01*
X017347Y011268D02*
X016845Y011268D01*
X016845Y011273D02*
X016845Y011300D01*
X016982Y011300D01*
X017110Y011428D01*
X017203Y011428D01*
X017305Y011470D01*
X017309Y011474D01*
X017374Y011409D01*
X017749Y011409D01*
X017794Y011454D01*
X017807Y011431D01*
X017837Y011401D01*
X017873Y011380D01*
X017914Y011369D01*
X018064Y011369D01*
X018064Y011698D01*
X018082Y011698D01*
X018082Y011715D01*
X018371Y011715D01*
X018371Y011905D01*
X018360Y011945D01*
X018339Y011982D01*
X018309Y012012D01*
X018295Y012019D01*
X018349Y012019D01*
X018419Y012090D01*
X018419Y012599D01*
X018641Y012599D01*
X018641Y010346D01*
X018581Y010371D01*
X018641Y010557D02*
X018371Y010557D01*
X018475Y010675D02*
X018641Y010675D01*
X018641Y010794D02*
X018566Y010794D01*
X018568Y010912D02*
X018641Y010912D01*
X018641Y011031D02*
X018568Y011031D01*
X018568Y011149D02*
X018641Y011149D01*
X018641Y011268D02*
X018539Y011268D01*
X018641Y011386D02*
X018283Y011386D01*
X018272Y011380D02*
X018309Y011401D01*
X018339Y011431D01*
X018360Y011468D01*
X018371Y011508D01*
X018371Y011698D01*
X018082Y011698D01*
X018082Y011369D01*
X018232Y011369D01*
X018272Y011380D01*
X018261Y011268D02*
X018279Y011268D01*
X018279Y011149D02*
X018261Y011149D01*
X018261Y011031D02*
X018279Y011031D01*
X018001Y011268D02*
X017973Y011268D01*
X018064Y011386D02*
X018082Y011386D01*
X018082Y011505D02*
X018064Y011505D01*
X018064Y011623D02*
X018082Y011623D01*
X018371Y011623D02*
X018641Y011623D01*
X018641Y011505D02*
X018370Y011505D01*
X018371Y011742D02*
X018641Y011742D01*
X018641Y011860D02*
X018371Y011860D01*
X018341Y011979D02*
X018641Y011979D01*
X018641Y012097D02*
X018419Y012097D01*
X018419Y012216D02*
X018641Y012216D01*
X018641Y012334D02*
X018419Y012334D01*
X018419Y012453D02*
X018641Y012453D01*
X018641Y012571D02*
X018419Y012571D01*
X019162Y013282D02*
X021522Y013282D01*
X021472Y013164D02*
X019281Y013164D01*
X019399Y013045D02*
X021423Y013045D01*
X021373Y012927D02*
X019518Y012927D01*
X019552Y012892D02*
X019435Y013009D01*
X018845Y013599D01*
X018419Y013599D01*
X018419Y013685D01*
X018349Y013756D01*
X018033Y013756D01*
X018032Y013755D01*
X018023Y013764D01*
X017987Y013785D01*
X017946Y013796D01*
X017817Y013796D01*
X017688Y013796D01*
X017647Y013785D01*
X017610Y013764D01*
X017602Y013755D01*
X017601Y013756D01*
X017285Y013756D01*
X017215Y013685D01*
X017215Y013113D01*
X017273Y013055D01*
X017273Y012963D01*
X017218Y013018D01*
X016526Y013018D01*
X016426Y012919D01*
X016341Y012833D01*
X016298Y012851D01*
X016187Y012851D01*
X016137Y012830D01*
X016137Y012983D01*
X016246Y012983D01*
X016287Y013023D01*
X016489Y013023D01*
X016557Y013092D01*
X016626Y013023D01*
X017001Y013023D01*
X017071Y013094D01*
X017071Y013547D01*
X017033Y013586D01*
X017033Y013592D01*
X017231Y013790D01*
X017271Y013831D01*
X017375Y013831D01*
X017445Y013901D01*
X017445Y014276D01*
X017376Y014344D01*
X017445Y014413D01*
X017445Y014788D01*
X017375Y014858D01*
X016921Y014858D01*
X016863Y014800D01*
X016757Y014800D01*
X016757Y014820D01*
X016793Y014856D01*
X016836Y014958D01*
X016836Y015069D01*
X016793Y015171D01*
X016715Y015250D01*
X016613Y015292D01*
X016502Y015292D01*
X016399Y015250D01*
X016321Y015171D01*
X016279Y015069D01*
X016328Y015178D02*
X016001Y015178D01*
X016022Y015215D01*
X016033Y015255D01*
X016033Y016017D01*
X015633Y016017D01*
X015633Y016137D01*
X016033Y016137D01*
X016033Y016638D01*
X016596Y016665D01*
X017113Y016640D01*
X017113Y016137D01*
X017513Y016137D01*
X017513Y016017D01*
X017113Y016017D01*
X017113Y015255D01*
X017124Y015215D01*
X017145Y015178D01*
X016786Y015178D01*
X016836Y015060D02*
X021500Y015060D01*
X021539Y015178D02*
X018001Y015178D01*
X018022Y015215D01*
X018033Y015255D01*
X018033Y016017D01*
X017633Y016017D01*
X017633Y016137D01*
X018033Y016137D01*
X018033Y016596D01*
X018078Y016594D01*
X019547Y016383D01*
X020988Y016033D01*
X021738Y015773D01*
X021179Y014100D01*
X021159Y014046D01*
X021160Y014044D01*
X021159Y014041D01*
X021185Y013989D01*
X021209Y013937D01*
X021212Y013936D01*
X021213Y013933D01*
X021267Y013915D01*
X021718Y013746D01*
X021306Y012769D01*
X021305Y012768D01*
X021274Y012692D01*
X021242Y012617D01*
X021243Y012616D01*
X021242Y012614D01*
X021274Y012539D01*
X021305Y012464D01*
X021306Y012463D01*
X021307Y012462D01*
X021382Y012431D01*
X021457Y012399D01*
X021459Y012400D01*
X021509Y012379D01*
X021900Y012211D01*
X022657Y011826D01*
X022726Y011783D01*
X022715Y011788D01*
X022604Y011788D01*
X022502Y011746D01*
X022423Y011667D01*
X022381Y011565D01*
X022381Y011454D01*
X022423Y011352D01*
X022459Y011316D01*
X022459Y008914D01*
X022424Y008950D01*
X022321Y008993D01*
X022210Y008993D01*
X022108Y008950D01*
X022033Y008875D01*
X022033Y009663D01*
X021916Y009780D01*
X021875Y009821D01*
X021875Y011231D01*
X021888Y011231D01*
X021990Y011274D01*
X022069Y011352D01*
X022111Y011454D01*
X022111Y011565D01*
X022069Y011667D01*
X021990Y011746D01*
X021888Y011788D01*
X021777Y011788D01*
X021675Y011746D01*
X021597Y011667D01*
X021554Y011565D01*
X021554Y011514D01*
X021475Y011435D01*
X021475Y010063D01*
X021285Y010254D01*
X021168Y010371D01*
X019781Y010371D01*
X019582Y010171D01*
X019552Y010242D01*
X019552Y012892D01*
X019552Y012808D02*
X021323Y012808D01*
X021273Y012690D02*
X019552Y012690D01*
X019552Y012571D02*
X021261Y012571D01*
X021329Y012453D02*
X019552Y012453D01*
X019552Y012334D02*
X021615Y012334D01*
X021890Y012216D02*
X019552Y012216D01*
X019552Y012097D02*
X022124Y012097D01*
X022357Y011979D02*
X019552Y011979D01*
X019552Y011860D02*
X022590Y011860D01*
X022498Y011742D02*
X021995Y011742D01*
X022087Y011623D02*
X022405Y011623D01*
X022381Y011505D02*
X022111Y011505D01*
X022083Y011386D02*
X022409Y011386D01*
X022459Y011268D02*
X021976Y011268D01*
X021875Y011149D02*
X022459Y011149D01*
X022459Y011031D02*
X021875Y011031D01*
X021875Y010912D02*
X022459Y010912D01*
X022459Y010794D02*
X021875Y010794D01*
X021875Y010675D02*
X022459Y010675D01*
X022459Y010557D02*
X021875Y010557D01*
X021875Y010438D02*
X022459Y010438D01*
X022459Y010320D02*
X021875Y010320D01*
X021875Y010201D02*
X022459Y010201D01*
X022459Y010083D02*
X021875Y010083D01*
X021875Y009964D02*
X022459Y009964D01*
X022459Y009846D02*
X021875Y009846D01*
X021969Y009727D02*
X022459Y009727D01*
X022459Y009609D02*
X022033Y009609D01*
X022033Y009490D02*
X022459Y009490D01*
X022459Y009372D02*
X022033Y009372D01*
X022033Y009253D02*
X022459Y009253D01*
X022459Y009135D02*
X022033Y009135D01*
X022033Y009016D02*
X022459Y009016D01*
X022055Y008898D02*
X022033Y008898D01*
X023214Y008661D02*
X023291Y008661D01*
X023214Y008542D02*
X023400Y008542D01*
X023510Y008424D02*
X023256Y008424D01*
X023292Y008305D02*
X023619Y008305D01*
X023729Y008187D02*
X023276Y008187D01*
X023203Y008068D02*
X023975Y008068D01*
X023834Y007950D02*
X023204Y007950D01*
X023206Y007831D02*
X023798Y007831D01*
X023815Y007713D02*
X023208Y007713D01*
X023209Y007594D02*
X023508Y007594D01*
X023423Y007476D02*
X023211Y007476D01*
X023212Y007357D02*
X023405Y007357D01*
X023439Y007239D02*
X023214Y007239D01*
X023159Y007120D02*
X023420Y007120D01*
X023295Y007002D02*
X023041Y007002D01*
X022922Y006883D02*
X023166Y006883D01*
X023038Y006765D02*
X022804Y006765D01*
X022796Y006646D02*
X022685Y006646D01*
X022663Y006528D02*
X022736Y006528D01*
X022738Y006409D02*
X022663Y006409D01*
X022663Y005817D02*
X022717Y005817D01*
X022663Y005698D02*
X022913Y005698D01*
X020012Y006113D02*
X019802Y005903D01*
X019802Y005317D01*
X019582Y005097D01*
X019582Y004749D01*
X019708Y004623D01*
X019353Y004623D01*
X019462Y004732D01*
X019462Y004883D01*
X019042Y004883D01*
X019042Y004963D01*
X018962Y004963D01*
X018962Y005383D01*
X018811Y005383D01*
X018542Y005114D01*
X018542Y004963D01*
X018962Y004963D01*
X018962Y004883D01*
X018542Y004883D01*
X018542Y004732D01*
X018651Y004623D01*
X017268Y004623D01*
X017267Y004624D01*
X017186Y004623D01*
X017104Y004623D01*
X017103Y004622D01*
X017102Y004622D01*
X017045Y004563D01*
X016993Y004512D01*
X016993Y004820D01*
X017029Y004856D01*
X017072Y004958D01*
X017072Y005069D01*
X017029Y005171D01*
X016951Y005250D01*
X016849Y005292D01*
X016738Y005292D01*
X016636Y005250D01*
X016557Y005171D01*
X016515Y005069D01*
X016515Y004958D01*
X016557Y004856D01*
X016593Y004820D01*
X016593Y004504D01*
X016200Y004098D01*
X016163Y004187D01*
X016127Y004223D01*
X016127Y005325D01*
X017072Y005325D01*
X017108Y005289D01*
X017210Y005247D01*
X017321Y005247D01*
X017424Y005289D01*
X017502Y005368D01*
X017544Y005470D01*
X017544Y005581D01*
X017502Y005683D01*
X017466Y005719D01*
X017813Y005719D01*
X018050Y005482D01*
X018050Y005431D01*
X018093Y005328D01*
X018171Y005250D01*
X018273Y005208D01*
X018384Y005208D01*
X018486Y005250D01*
X018565Y005328D01*
X018607Y005431D01*
X018607Y005541D01*
X018565Y005644D01*
X018486Y005722D01*
X018384Y005764D01*
X018333Y005764D01*
X018064Y006034D01*
X018870Y006034D01*
X019035Y005851D01*
X019035Y005785D01*
X019077Y005683D01*
X019155Y005604D01*
X019258Y005562D01*
X019368Y005562D01*
X019471Y005604D01*
X019549Y005683D01*
X019591Y005785D01*
X019591Y005896D01*
X019549Y005998D01*
X019471Y006076D01*
X019368Y006119D01*
X019332Y006119D01*
X019159Y006311D01*
X019159Y006317D01*
X019127Y006349D01*
X019704Y006349D01*
X019704Y006336D01*
X019746Y006234D01*
X019825Y006155D01*
X019927Y006113D01*
X020012Y006113D01*
X019952Y006054D02*
X019494Y006054D01*
X019575Y005935D02*
X019834Y005935D01*
X019802Y005817D02*
X019591Y005817D01*
X019555Y005698D02*
X019802Y005698D01*
X019802Y005580D02*
X019411Y005580D01*
X019215Y005580D02*
X018591Y005580D01*
X018607Y005461D02*
X019802Y005461D01*
X019802Y005343D02*
X019233Y005343D01*
X019193Y005383D02*
X019042Y005383D01*
X019042Y004963D01*
X019462Y004963D01*
X019462Y005114D01*
X019193Y005383D01*
X019042Y005343D02*
X018962Y005343D01*
X018962Y005224D02*
X019042Y005224D01*
X019042Y005106D02*
X018962Y005106D01*
X018962Y004987D02*
X019042Y004987D01*
X019351Y005224D02*
X019709Y005224D01*
X019591Y005106D02*
X019462Y005106D01*
X019462Y004987D02*
X019582Y004987D01*
X019582Y004869D02*
X019462Y004869D01*
X019462Y004750D02*
X019582Y004750D01*
X019699Y004632D02*
X019361Y004632D01*
X018643Y004632D02*
X016993Y004632D01*
X016993Y004750D02*
X018542Y004750D01*
X018542Y004869D02*
X017035Y004869D01*
X017072Y004987D02*
X018542Y004987D01*
X018542Y005106D02*
X017057Y005106D01*
X016977Y005224D02*
X018234Y005224D01*
X018087Y005343D02*
X017477Y005343D01*
X017541Y005461D02*
X018050Y005461D01*
X017952Y005580D02*
X017544Y005580D01*
X017487Y005698D02*
X017834Y005698D01*
X018163Y005935D02*
X018959Y005935D01*
X019035Y005817D02*
X018281Y005817D01*
X018510Y005698D02*
X019071Y005698D01*
X018771Y005343D02*
X018571Y005343D01*
X018653Y005224D02*
X018424Y005224D01*
X019284Y006172D02*
X019808Y006172D01*
X019723Y006291D02*
X019177Y006291D01*
X018423Y007950D02*
X017816Y007950D01*
X017945Y008068D02*
X018541Y008068D01*
X018641Y008187D02*
X017977Y008187D01*
X017958Y008305D02*
X018641Y008305D01*
X018641Y008424D02*
X017872Y008424D01*
X018147Y008542D02*
X015773Y008542D01*
X015757Y008424D02*
X017526Y008424D01*
X018066Y008661D02*
X015736Y008661D01*
X015590Y008779D02*
X018050Y008779D01*
X018087Y008898D02*
X015025Y008898D01*
X015009Y008779D02*
X015398Y008779D01*
X015525Y009135D02*
X018326Y009135D01*
X018326Y009253D02*
X016545Y009253D01*
X016624Y009372D02*
X016862Y009372D01*
X016743Y009490D02*
X016639Y009490D01*
X016601Y009609D02*
X016712Y009609D01*
X016663Y009727D02*
X016449Y009727D01*
X016272Y009727D02*
X016218Y009727D01*
X016176Y009846D02*
X016663Y009846D01*
X016663Y009964D02*
X016176Y009964D01*
X016314Y010083D02*
X016663Y010083D01*
X017003Y009964D02*
X018277Y009964D01*
X018326Y009846D02*
X017158Y009846D01*
X017247Y009727D02*
X018326Y009727D01*
X018326Y009609D02*
X017269Y009609D01*
X017238Y009490D02*
X018326Y009490D01*
X018326Y009372D02*
X017118Y009372D01*
X016176Y009253D02*
X015643Y009253D01*
X015762Y009372D02*
X016093Y009372D01*
X015974Y009490D02*
X015880Y009490D01*
X015245Y009964D02*
X014808Y009964D01*
X014800Y009846D02*
X015164Y009846D01*
X014988Y009016D02*
X018235Y009016D01*
X018637Y008779D02*
X018641Y008779D01*
X018641Y008661D02*
X018592Y008661D01*
X018641Y008542D02*
X018511Y008542D01*
X019569Y010201D02*
X019611Y010201D01*
X019552Y010320D02*
X019730Y010320D01*
X019552Y010438D02*
X021475Y010438D01*
X021475Y010320D02*
X021219Y010320D01*
X021337Y010201D02*
X021475Y010201D01*
X021475Y010083D02*
X021456Y010083D01*
X021475Y010557D02*
X019552Y010557D01*
X019552Y010675D02*
X021475Y010675D01*
X021475Y010794D02*
X019552Y010794D01*
X019552Y010912D02*
X021475Y010912D01*
X021475Y011031D02*
X019552Y011031D01*
X019552Y011149D02*
X021475Y011149D01*
X021475Y011268D02*
X019552Y011268D01*
X019552Y011386D02*
X021475Y011386D01*
X021545Y011505D02*
X019552Y011505D01*
X019552Y011623D02*
X021578Y011623D01*
X021671Y011742D02*
X019552Y011742D01*
X017863Y011386D02*
X017068Y011386D01*
X016845Y011273D02*
X016557Y011273D01*
X016269Y011273D01*
X016278Y011386D02*
X016241Y011386D01*
X016006Y011825D02*
X016006Y011825D01*
X016006Y012113D01*
X016086Y012113D01*
X016127Y012102D01*
X016163Y012081D01*
X016171Y012073D01*
X016210Y012073D01*
X016329Y012191D01*
X017215Y012191D01*
X017215Y012599D01*
X017156Y012599D01*
X017077Y012678D01*
X016667Y012678D01*
X016521Y012532D01*
X016521Y012517D01*
X016478Y012415D01*
X016400Y012337D01*
X016298Y012294D01*
X016187Y012294D01*
X016088Y012335D01*
X016037Y012284D01*
X015979Y012227D01*
X015979Y012113D01*
X016006Y012113D01*
X016006Y011825D01*
X016006Y011860D02*
X016006Y011860D01*
X016006Y011979D02*
X016006Y011979D01*
X016006Y012097D02*
X016006Y012097D01*
X015979Y012216D02*
X017215Y012216D01*
X017215Y012334D02*
X016394Y012334D01*
X016494Y012453D02*
X017215Y012453D01*
X017215Y012571D02*
X016560Y012571D01*
X016090Y012334D02*
X016087Y012334D01*
X016135Y012097D02*
X016235Y012097D01*
X015612Y012671D02*
X015553Y012671D01*
X015041Y013183D01*
X015022Y013183D01*
X014725Y013164D02*
X014690Y013164D01*
X014690Y013192D02*
X014690Y013342D01*
X014679Y013382D01*
X014658Y013419D01*
X014628Y013449D01*
X014591Y013470D01*
X014551Y013481D01*
X014361Y013481D01*
X014361Y013192D01*
X014690Y013192D01*
X014690Y013282D02*
X014725Y013282D01*
X014755Y013401D02*
X014668Y013401D01*
X014361Y013401D02*
X014344Y013401D01*
X014344Y013282D02*
X014361Y013282D01*
X014343Y013192D02*
X014343Y013174D01*
X014015Y013174D01*
X013692Y013174D01*
X013692Y013192D01*
X014343Y013192D01*
X014037Y013401D02*
X013999Y013401D01*
X013692Y013401D02*
X013674Y013401D01*
X013674Y013282D02*
X013692Y013282D01*
X013367Y013401D02*
X010700Y013401D01*
X011001Y013519D02*
X016043Y013519D01*
X016043Y013401D02*
X015879Y013401D01*
X015345Y013401D02*
X015289Y013401D01*
X015691Y013823D02*
X015728Y013801D01*
X015768Y013791D01*
X015958Y013791D01*
X015958Y014079D01*
X015629Y014079D01*
X015629Y013929D01*
X015640Y013889D01*
X015661Y013852D01*
X015691Y013823D01*
X015649Y013875D02*
X011915Y013875D01*
X012122Y013993D02*
X015629Y013993D01*
X015629Y014112D02*
X012130Y014112D01*
X012089Y014230D02*
X015629Y014230D01*
X015686Y014349D02*
X012048Y014349D01*
X012007Y014467D02*
X015669Y014467D01*
X015669Y014586D02*
X011966Y014586D01*
X011925Y014704D02*
X015669Y014704D01*
X015704Y014823D02*
X011884Y014823D01*
X011844Y014941D02*
X016286Y014941D01*
X016229Y014823D02*
X016354Y014823D01*
X016760Y014823D02*
X016885Y014823D01*
X016828Y014941D02*
X021460Y014941D01*
X021421Y014823D02*
X017410Y014823D01*
X017445Y014704D02*
X021381Y014704D01*
X021341Y014586D02*
X017445Y014586D01*
X017445Y014467D02*
X021302Y014467D01*
X021262Y014349D02*
X017381Y014349D01*
X017445Y014230D02*
X021223Y014230D01*
X021183Y014112D02*
X017445Y014112D01*
X017445Y013993D02*
X021183Y013993D01*
X021375Y013875D02*
X017419Y013875D01*
X017231Y013790D02*
X017231Y013790D01*
X017197Y013756D02*
X017603Y013756D01*
X017817Y013756D02*
X017817Y013756D01*
X017817Y013796D02*
X017817Y013399D01*
X017817Y013399D01*
X017817Y013796D01*
X017817Y013638D02*
X017817Y013638D01*
X017817Y013519D02*
X017817Y013519D01*
X017817Y013401D02*
X017817Y013401D01*
X018031Y013756D02*
X021692Y013756D01*
X021672Y013638D02*
X018419Y013638D01*
X018925Y013519D02*
X021622Y013519D01*
X021572Y013401D02*
X019044Y013401D01*
X017273Y013045D02*
X017022Y013045D01*
X017071Y013164D02*
X017215Y013164D01*
X017215Y013282D02*
X017071Y013282D01*
X017071Y013401D02*
X017215Y013401D01*
X017215Y013519D02*
X017071Y013519D01*
X017078Y013638D02*
X017215Y013638D01*
X016749Y013875D02*
X016285Y013875D01*
X016304Y013993D02*
X016851Y013993D01*
X016851Y014112D02*
X016304Y014112D01*
X016304Y014230D02*
X016851Y014230D01*
X016915Y014349D02*
X016248Y014349D01*
X015975Y013993D02*
X015958Y013993D01*
X015958Y013875D02*
X015975Y013875D01*
X016633Y013756D02*
X011610Y013756D01*
X011306Y013638D02*
X016633Y013638D01*
X016604Y013045D02*
X016510Y013045D01*
X016434Y012927D02*
X016137Y012927D01*
X014793Y012927D02*
X014637Y012927D01*
X014690Y013045D02*
X014725Y013045D01*
X014755Y012453D02*
X014619Y012453D01*
X014702Y012097D02*
X014891Y012097D01*
X012487Y012216D02*
X012387Y012216D01*
X012395Y012201D02*
X012374Y012238D01*
X012344Y012268D01*
X012308Y012289D01*
X012267Y012300D01*
X012078Y012300D01*
X012078Y012011D01*
X012406Y012011D01*
X012406Y012161D01*
X012395Y012201D01*
X012406Y012097D02*
X012421Y012097D01*
X012406Y011979D02*
X012421Y011979D01*
X012406Y011860D02*
X012421Y011860D01*
X012421Y011742D02*
X012350Y011742D01*
X012366Y011623D02*
X012421Y011623D01*
X012421Y011505D02*
X012366Y011505D01*
X012366Y011386D02*
X012421Y011386D01*
X012724Y010794D02*
X010946Y010794D01*
X010969Y010675D02*
X011772Y010675D01*
X011772Y010557D02*
X011250Y010557D01*
X011567Y010201D02*
X011747Y010201D01*
X011732Y010083D02*
X011633Y010083D01*
X011639Y009964D02*
X011732Y009964D01*
X011732Y009846D02*
X011586Y009846D01*
X012078Y009985D02*
X012078Y010003D01*
X012406Y010003D01*
X012406Y010153D01*
X012395Y010193D01*
X012374Y010230D01*
X012344Y010260D01*
X012321Y010273D01*
X012354Y010306D01*
X012421Y010306D01*
X012421Y009846D01*
X012438Y009829D01*
X012405Y009829D01*
X012406Y009835D01*
X012406Y009985D01*
X012078Y009985D01*
X012406Y009964D02*
X012421Y009964D01*
X012406Y009846D02*
X012422Y009846D01*
X012406Y010083D02*
X012421Y010083D01*
X012421Y010201D02*
X012391Y010201D01*
X013129Y008790D02*
X010608Y008790D01*
X010497Y008901D01*
X010497Y008859D01*
X010899Y008403D01*
X013052Y008403D01*
X013011Y008501D01*
X013011Y008612D01*
X013053Y008715D01*
X013129Y008790D01*
X013118Y008779D02*
X010567Y008779D01*
X010501Y008898D02*
X010497Y008898D01*
X010672Y008661D02*
X013031Y008661D01*
X013011Y008542D02*
X010776Y008542D01*
X010881Y008424D02*
X013043Y008424D01*
X010347Y008424D02*
X004938Y008424D01*
X004739Y008542D02*
X010243Y008542D01*
X009956Y008779D02*
X009161Y008779D01*
X007985Y006409D02*
X001960Y006409D01*
X001912Y006291D02*
X007866Y006291D01*
X007748Y006172D02*
X002141Y006172D01*
X002515Y006054D02*
X007629Y006054D01*
X007511Y005935D02*
X002890Y005935D01*
X003264Y005817D02*
X007392Y005817D01*
X007274Y005698D02*
X003627Y005698D01*
X003675Y005580D02*
X007155Y005580D01*
X007037Y005461D02*
X003641Y005461D01*
X003608Y005343D02*
X006918Y005343D01*
X006800Y005224D02*
X003576Y005224D01*
X003543Y005106D02*
X006681Y005106D01*
X006563Y004987D02*
X003511Y004987D01*
X003478Y004869D02*
X006444Y004869D01*
X006326Y004750D02*
X003446Y004750D01*
X003413Y004632D02*
X006278Y004632D01*
X006278Y004513D02*
X003381Y004513D01*
X003348Y004395D02*
X006278Y004395D01*
X006278Y004276D02*
X003316Y004276D01*
X003284Y004158D02*
X006278Y004158D01*
X006278Y004039D02*
X001311Y004039D01*
X001333Y004158D02*
X002747Y004158D01*
X002244Y004276D02*
X001356Y004276D01*
X001379Y004395D02*
X001742Y004395D01*
X001288Y003921D02*
X006278Y003921D01*
X006278Y003802D02*
X001265Y003802D01*
X001242Y003684D02*
X006278Y003684D01*
X006278Y003565D02*
X001219Y003565D01*
X001196Y003447D02*
X006278Y003447D01*
X006278Y003328D02*
X001174Y003328D01*
X001159Y003210D02*
X006278Y003210D01*
X006278Y003091D02*
X001148Y003091D01*
X001136Y002973D02*
X006278Y002973D01*
X006278Y002854D02*
X002376Y002854D01*
X003045Y002736D02*
X005704Y002736D01*
X005531Y002617D02*
X003053Y002617D01*
X003048Y002499D02*
X005413Y002499D01*
X005511Y002596D02*
X005511Y002596D01*
X005183Y002380D02*
X003044Y002380D01*
X003040Y002262D02*
X005137Y002262D01*
X005145Y002143D02*
X003036Y002143D01*
X003032Y002025D02*
X005215Y002025D01*
X005615Y002025D02*
X005669Y002025D01*
X005669Y001906D02*
X003027Y001906D01*
X003023Y001788D02*
X005696Y001788D01*
X006237Y001788D02*
X006742Y001788D01*
X006742Y001906D02*
X006449Y001906D01*
X006568Y002025D02*
X006742Y002025D01*
X006742Y002143D02*
X006678Y002143D01*
X006678Y002262D02*
X006742Y002262D01*
X006742Y002380D02*
X006678Y002380D01*
X006678Y002499D02*
X006742Y002499D01*
X006776Y002617D02*
X006678Y002617D01*
X006678Y002736D02*
X010058Y002736D01*
X010058Y002854D02*
X006678Y002854D01*
X006278Y002736D02*
X006229Y002736D01*
X006264Y002617D02*
X006278Y002617D01*
X006264Y002499D02*
X006278Y002499D01*
X006264Y002380D02*
X006278Y002380D01*
X006239Y002262D02*
X006199Y002262D01*
X006769Y001669D02*
X003019Y001669D01*
X003015Y001551D02*
X006608Y001551D01*
X006594Y001432D02*
X003011Y001432D01*
X003006Y001314D02*
X006594Y001314D01*
X007743Y001669D02*
X008915Y001669D01*
X008888Y001788D02*
X007770Y001788D01*
X007770Y001906D02*
X008888Y001906D01*
X008888Y002025D02*
X007770Y002025D01*
X007770Y002143D02*
X008888Y002143D01*
X008888Y002262D02*
X007770Y002262D01*
X007770Y002380D02*
X008888Y002380D01*
X008888Y002499D02*
X007770Y002499D01*
X007736Y002617D02*
X008922Y002617D01*
X009006Y003091D02*
X007651Y003091D01*
X007720Y003210D02*
X008938Y003210D01*
X008917Y003328D02*
X007741Y003328D01*
X007724Y003447D02*
X008934Y003447D01*
X008998Y003565D02*
X007660Y003565D01*
X009881Y002617D02*
X010058Y002617D01*
X010058Y002499D02*
X009915Y002499D01*
X009915Y002380D02*
X010058Y002380D01*
X010058Y002262D02*
X009915Y002262D01*
X009915Y002143D02*
X010058Y002143D01*
X010058Y002025D02*
X009915Y002025D01*
X009915Y001906D02*
X010058Y001906D01*
X010058Y001788D02*
X009915Y001788D01*
X009888Y001669D02*
X010058Y001669D01*
X010050Y001551D02*
X010092Y001551D01*
X010064Y001432D02*
X010210Y001432D01*
X010329Y001314D02*
X010064Y001314D01*
X010960Y003210D02*
X011003Y003210D01*
X014195Y002494D02*
X015691Y002494D01*
X016636Y003439D01*
X019274Y003439D01*
X020179Y003399D02*
X020687Y003907D01*
X021002Y003923D01*
X021321Y003557D02*
X021203Y003439D01*
X021321Y003557D02*
X021636Y003557D01*
X021754Y003439D01*
X022502Y003439D01*
X022986Y003923D01*
X023859Y007594D02*
X023898Y007594D01*
X025086Y007594D02*
X025186Y007594D01*
X025950Y008424D02*
X026919Y008424D01*
X026829Y008542D02*
X025831Y008542D01*
X026473Y009016D02*
X025143Y009016D01*
X025182Y009135D02*
X026381Y009135D01*
X026280Y009253D02*
X026072Y009253D01*
X026127Y009372D02*
X026179Y009372D01*
X025625Y009253D02*
X025182Y009253D01*
X025182Y009372D02*
X025570Y009372D01*
X025575Y009490D02*
X025182Y009490D01*
X025182Y009609D02*
X025494Y009609D01*
X025522Y009581D02*
X025522Y009581D01*
X025421Y009682D02*
X025421Y009682D01*
X025373Y009727D02*
X025247Y009727D01*
X024782Y009609D02*
X024237Y009609D01*
X024237Y009727D02*
X024718Y009727D01*
X024704Y009846D02*
X024237Y009846D01*
X024237Y009964D02*
X024742Y009964D01*
X024897Y010083D02*
X024237Y010083D01*
X024237Y010201D02*
X024858Y010201D01*
X024720Y010320D02*
X024237Y010320D01*
X024237Y010438D02*
X024581Y010438D01*
X024443Y010557D02*
X024303Y010557D01*
X024237Y009490D02*
X024782Y009490D01*
X024782Y009372D02*
X024237Y009372D01*
X024237Y009253D02*
X024655Y009253D01*
X024590Y009135D02*
X024237Y009135D01*
X024237Y009016D02*
X024586Y009016D01*
X024642Y008898D02*
X024248Y008898D01*
X024312Y008779D02*
X026651Y008779D01*
X026562Y008898D02*
X025087Y008898D01*
X024316Y008661D02*
X026740Y008661D01*
X017543Y011268D02*
X017500Y011268D01*
X012078Y012097D02*
X012060Y012097D01*
X012060Y012216D02*
X012078Y012216D01*
X011751Y012216D02*
X008688Y012216D01*
X008516Y012097D02*
X011732Y012097D01*
X011732Y011979D02*
X008345Y011979D01*
X008174Y011860D02*
X011732Y011860D01*
X010165Y014349D02*
X008444Y014349D01*
X008649Y014467D02*
X010114Y014467D01*
X010063Y014586D02*
X008854Y014586D01*
X009059Y014704D02*
X010012Y014704D01*
X009961Y014823D02*
X009265Y014823D01*
X009474Y014941D02*
X009910Y014941D01*
X009859Y015060D02*
X009734Y015060D01*
X011598Y015652D02*
X015113Y015652D01*
X015113Y015534D02*
X011639Y015534D01*
X011680Y015415D02*
X015113Y015415D01*
X015113Y015297D02*
X011721Y015297D01*
X011557Y015771D02*
X015113Y015771D01*
X015113Y015889D02*
X011789Y015889D01*
X012131Y016008D02*
X015113Y016008D01*
X015113Y016245D02*
X013076Y016245D01*
X013565Y016363D02*
X015113Y016363D01*
X015113Y016482D02*
X014333Y016482D01*
X015513Y016126D02*
X012588Y016126D01*
X015145Y015178D02*
X015175Y015148D01*
X015211Y015127D01*
X015252Y015117D01*
X015513Y015117D01*
X015513Y016017D01*
X015633Y016017D01*
X015633Y015117D01*
X015894Y015117D01*
X015935Y015127D01*
X015971Y015148D01*
X016001Y015178D01*
X016033Y015297D02*
X017113Y015297D01*
X017113Y015415D02*
X016033Y015415D01*
X016033Y015534D02*
X017113Y015534D01*
X017113Y015652D02*
X016033Y015652D01*
X016033Y015771D02*
X017113Y015771D01*
X017113Y015889D02*
X016033Y015889D01*
X016033Y016008D02*
X017113Y016008D01*
X017113Y016245D02*
X016033Y016245D01*
X016033Y016363D02*
X017113Y016363D01*
X017113Y016482D02*
X016033Y016482D01*
X016033Y016600D02*
X017113Y016600D01*
X017513Y016126D02*
X015633Y016126D01*
X015633Y016008D02*
X015513Y016008D01*
X015513Y015889D02*
X015633Y015889D01*
X015633Y015771D02*
X015513Y015771D01*
X015513Y015652D02*
X015633Y015652D01*
X015633Y015534D02*
X015513Y015534D01*
X015513Y015415D02*
X015633Y015415D01*
X015633Y015297D02*
X015513Y015297D01*
X015513Y015178D02*
X015633Y015178D01*
X017145Y015178D02*
X017175Y015148D01*
X017211Y015127D01*
X017252Y015117D01*
X017513Y015117D01*
X017513Y016017D01*
X017633Y016017D01*
X017633Y015117D01*
X017894Y015117D01*
X017935Y015127D01*
X017971Y015148D01*
X018001Y015178D01*
X018033Y015297D02*
X021579Y015297D01*
X021619Y015415D02*
X018033Y015415D01*
X018033Y015534D02*
X021658Y015534D01*
X021698Y015652D02*
X018033Y015652D01*
X018033Y015771D02*
X021737Y015771D01*
X021404Y015889D02*
X018033Y015889D01*
X018033Y016008D02*
X021062Y016008D01*
X020605Y016126D02*
X017633Y016126D01*
X017633Y016008D02*
X017513Y016008D01*
X017513Y015889D02*
X017633Y015889D01*
X017633Y015771D02*
X017513Y015771D01*
X017513Y015652D02*
X017633Y015652D01*
X017633Y015534D02*
X017513Y015534D01*
X017513Y015415D02*
X017633Y015415D01*
X017633Y015297D02*
X017513Y015297D01*
X017513Y015178D02*
X017633Y015178D01*
X018033Y016245D02*
X020117Y016245D01*
X019628Y016363D02*
X018033Y016363D01*
X018033Y016482D02*
X018860Y016482D01*
X003725Y007120D02*
X002244Y007120D01*
X002197Y007002D02*
X003961Y007002D01*
X003490Y007239D02*
X002292Y007239D01*
X002339Y007357D02*
X003254Y007357D01*
X003018Y007476D02*
X002387Y007476D01*
X002439Y007594D02*
X002782Y007594D01*
X002546Y007713D02*
X002500Y007713D01*
X015326Y002109D02*
X015615Y002109D01*
X015615Y002298D01*
X015611Y002314D01*
X015766Y002314D01*
X016062Y002610D01*
X016062Y001954D01*
X016025Y001926D01*
X016010Y001926D01*
X015971Y001886D01*
X015611Y001886D01*
X015615Y001902D01*
X015615Y002091D01*
X015326Y002091D01*
X015326Y002109D01*
X015615Y002143D02*
X016062Y002143D01*
X016062Y002025D02*
X015615Y002025D01*
X015615Y001906D02*
X015990Y001906D01*
X016062Y002262D02*
X015615Y002262D01*
X015832Y002380D02*
X016062Y002380D01*
X016062Y002499D02*
X015950Y002499D01*
X016422Y002499D02*
X016633Y002499D01*
X016633Y002617D02*
X016423Y002617D01*
X016542Y002736D02*
X016633Y002736D01*
X016660Y002854D02*
X016695Y002854D01*
X016729Y002913D02*
X016729Y002913D01*
X016779Y002973D02*
X016833Y002973D01*
X016633Y002380D02*
X016422Y002380D01*
X016422Y002262D02*
X016633Y002262D01*
X016633Y002143D02*
X016422Y002143D01*
X016422Y002025D02*
X016633Y002025D01*
X016633Y001906D02*
X016430Y001906D01*
X016420Y001788D02*
X016633Y001788D01*
X016633Y001669D02*
X016282Y001669D01*
X016144Y001551D02*
X016633Y001551D01*
X016258Y004158D02*
X016175Y004158D01*
X016127Y004276D02*
X016373Y004276D01*
X016488Y004395D02*
X016127Y004395D01*
X016127Y004513D02*
X016593Y004513D01*
X016593Y004632D02*
X016127Y004632D01*
X016127Y004750D02*
X016593Y004750D01*
X016552Y004869D02*
X016127Y004869D01*
X016127Y004987D02*
X016515Y004987D01*
X016530Y005106D02*
X016127Y005106D01*
X016127Y005224D02*
X016610Y005224D01*
X016993Y004513D02*
X016994Y004513D01*
D26*
X016793Y005014D03*
X017266Y005525D03*
X018329Y005486D03*
X019313Y005840D03*
X019982Y006391D03*
X020494Y007376D03*
X021400Y007376D03*
X021715Y007691D03*
X022620Y007966D03*
X023014Y008281D03*
X022266Y008714D03*
X021006Y009069D03*
X020534Y009738D03*
X019982Y009462D03*
X019195Y009620D03*
X019313Y010092D03*
X018526Y010092D03*
X017896Y009226D03*
X018329Y008754D03*
X018053Y008439D03*
X017699Y008203D03*
X016360Y009462D03*
X016990Y009620D03*
X017187Y010053D03*
X017423Y010998D03*
X018486Y011431D03*
X017817Y012140D03*
X017148Y011706D03*
X016872Y012573D03*
X016242Y012573D03*
X016557Y015014D03*
X014904Y016077D03*
X013998Y016077D03*
X013211Y016077D03*
X014431Y015328D03*
X013644Y015053D03*
X018329Y016077D03*
X019195Y016077D03*
X020022Y016077D03*
X018762Y015289D03*
X019510Y015014D03*
X021833Y011510D03*
X022659Y011510D03*
X023211Y011037D03*
X024037Y010643D03*
X024471Y009777D03*
X024982Y009817D03*
X025848Y009423D03*
X024864Y009069D03*
X024037Y008714D03*
X024077Y007809D03*
X023683Y007376D03*
X024825Y007691D03*
X023014Y006470D03*
X023486Y006234D03*
X022817Y006077D03*
X024510Y006234D03*
X026006Y006116D03*
X026085Y005643D03*
X027266Y005014D03*
X021478Y003203D03*
X020534Y003203D03*
X015927Y004029D03*
X014628Y003557D03*
X014431Y003911D03*
X013289Y002966D03*
X014195Y002494D03*
X014392Y002100D03*
X014943Y002848D03*
X015848Y002100D03*
X015848Y001391D03*
X012384Y002021D03*
X011282Y001825D03*
X010730Y003045D03*
X011596Y003124D03*
X012226Y003321D03*
X011596Y003951D03*
X012384Y004974D03*
X011596Y005604D03*
X012896Y005919D03*
X013250Y005525D03*
X013526Y006234D03*
X014037Y006549D03*
X014628Y006864D03*
X014392Y007612D03*
X014904Y007809D03*
X015652Y007730D03*
X015494Y008517D03*
X014746Y008872D03*
X014077Y008557D03*
X013289Y008557D03*
X012778Y008636D03*
X011203Y008636D03*
X010219Y008872D03*
X009037Y009029D03*
X009746Y007809D03*
X010258Y007809D03*
X008722Y007573D03*
X007935Y007573D03*
X009077Y006155D03*
X010179Y006825D03*
X009785Y005368D03*
X009904Y003832D03*
X005415Y002218D03*
X013211Y007415D03*
X014825Y005525D03*
X014982Y010171D03*
X011360Y010014D03*
X011045Y010368D03*
X010691Y010683D03*
X020415Y011313D03*
X022030Y009935D03*
X023368Y009502D03*
D27*
X018841Y012730D02*
X018801Y012769D01*
X017226Y012769D01*
X017148Y012848D01*
X016596Y012848D01*
X016321Y012573D01*
X016242Y012573D01*
X015967Y012454D02*
X015967Y013183D01*
X015612Y012671D02*
X015612Y011825D01*
X015415Y011825D02*
X015376Y011825D01*
X015061Y012140D01*
X015061Y012632D01*
X015022Y012671D01*
X015809Y012297D02*
X015967Y012454D01*
X015809Y012297D02*
X015809Y011825D01*
X016203Y011825D02*
X016203Y011588D01*
X016124Y011510D01*
X015494Y011510D01*
X015376Y011391D01*
X015376Y010919D01*
X015337Y010880D01*
X015376Y010840D01*
X015376Y010683D01*
X015455Y010604D01*
X016124Y010604D01*
X016203Y010683D01*
X016203Y010998D01*
X016282Y011077D01*
X016557Y011077D01*
X016557Y011273D02*
X016006Y011273D01*
X015809Y011077D01*
X015888Y011077D01*
X015337Y010880D02*
X015061Y010880D01*
X014628Y010880D01*
X014471Y010722D01*
X014471Y010545D01*
X015415Y010328D02*
X015415Y009856D01*
X015219Y009659D01*
X011478Y009659D01*
X011360Y009777D01*
X011360Y010014D01*
X011242Y010368D02*
X011045Y010368D01*
X011006Y010368D01*
X011006Y009580D01*
X011124Y009462D01*
X015337Y009462D01*
X015612Y009738D01*
X015612Y010328D01*
X015809Y010328D02*
X015809Y009659D01*
X015415Y009265D01*
X010927Y009265D01*
X010691Y009502D01*
X010691Y010683D01*
X014471Y011332D02*
X014530Y011273D01*
X015061Y011273D01*
X015061Y011470D02*
X015061Y011667D01*
X014864Y011864D01*
X014490Y011864D01*
X014471Y011844D01*
X016203Y011825D02*
X016400Y012021D01*
X017423Y012021D01*
X017443Y012002D01*
X017443Y011825D01*
X017148Y011706D02*
X016911Y011470D01*
X016557Y011470D01*
X016557Y010880D02*
X016911Y010880D01*
X017187Y010604D01*
X017404Y010604D01*
X017561Y010447D01*
X017423Y010998D02*
X017758Y010998D01*
X016833Y010171D02*
X016675Y010328D01*
X016203Y010328D01*
X016006Y010328D02*
X016006Y009699D01*
X016242Y009462D01*
X016360Y009462D01*
X016833Y009777D02*
X016990Y009620D01*
X016833Y009777D02*
X016833Y010171D01*
X017502Y012966D02*
X018093Y012966D01*
X018171Y013045D01*
X018171Y013380D01*
X018191Y013399D01*
X017443Y013399D02*
X017443Y013025D01*
X017502Y012966D01*
D28*
X016833Y013340D02*
X016833Y013675D01*
X017148Y013990D01*
X017148Y014088D01*
X017148Y014600D02*
X016557Y014600D01*
X016557Y015014D01*
X016557Y014600D02*
X015967Y014600D01*
X016301Y013321D02*
X016163Y013183D01*
X015967Y013183D01*
X015612Y013183D01*
X015612Y012671D02*
X015534Y012671D01*
X015022Y012671D02*
X014352Y012671D01*
X013683Y012671D01*
X013782Y011844D02*
X013663Y011726D01*
X013683Y011706D01*
X013683Y011470D01*
X013289Y011077D01*
X012305Y011077D01*
X012069Y011313D01*
X012069Y011490D01*
X012758Y010545D02*
X013053Y010840D01*
X013801Y010840D01*
X014274Y011313D01*
X014451Y011313D01*
X014471Y011332D01*
X014471Y011844D02*
X013782Y011844D01*
X012758Y010545D02*
X012758Y010269D01*
X012522Y010506D01*
X012069Y010506D01*
X010691Y008990D02*
X010455Y009226D01*
X010061Y009226D01*
X009864Y009029D01*
X009037Y009029D01*
X010219Y008872D02*
X010809Y008203D01*
X017699Y008203D01*
X018486Y007730D02*
X018841Y008084D01*
X018841Y012730D01*
X019352Y012809D02*
X019352Y010132D01*
X019313Y010092D01*
X019589Y009895D02*
X019864Y010171D01*
X021085Y010171D01*
X021439Y009817D01*
X021439Y008911D01*
X021282Y008754D01*
X021282Y007415D01*
X021321Y007376D01*
X021400Y007376D01*
X021715Y007691D02*
X021833Y007848D01*
X021833Y009580D01*
X021675Y009738D01*
X021675Y011352D01*
X021833Y011510D01*
X022659Y011510D02*
X022659Y008124D01*
X022620Y007966D01*
X023002Y008112D02*
X023014Y008281D01*
X023014Y010840D01*
X023211Y011037D01*
X024037Y010643D02*
X024037Y008714D01*
X023841Y008360D02*
X023368Y008872D01*
X023368Y009502D01*
X022266Y008714D02*
X022187Y008596D01*
X022187Y007573D01*
X022002Y007388D01*
X022002Y004923D01*
X022463Y005462D02*
X022463Y006706D01*
X023014Y007258D01*
X023002Y008112D01*
X023841Y008360D02*
X025730Y008360D01*
X026764Y007327D01*
X026764Y007301D01*
X025484Y007301D02*
X023837Y007301D01*
X023683Y007376D01*
X023526Y006943D02*
X023014Y006470D01*
X023486Y006234D02*
X023762Y006588D01*
X024746Y006588D01*
X025116Y006218D01*
X025484Y006218D01*
X025904Y006218D01*
X026006Y006116D01*
X026085Y005643D02*
X026081Y005640D01*
X025484Y005640D01*
X025104Y005640D01*
X024510Y006234D01*
X024195Y005958D01*
X024077Y005840D01*
X023053Y005840D01*
X022817Y006077D01*
X023014Y005958D01*
X022463Y005462D02*
X023002Y004923D01*
X023762Y004423D02*
X023998Y004187D01*
X023998Y003927D01*
X024002Y003923D01*
X023998Y004187D02*
X024234Y004423D01*
X028368Y004423D01*
X028880Y004935D01*
X027266Y005014D02*
X026093Y005014D01*
X026002Y004923D01*
X026006Y004927D01*
X023762Y004423D02*
X017187Y004423D01*
X015652Y002848D01*
X014943Y002848D01*
X015612Y003203D02*
X013526Y003203D01*
X013289Y002966D01*
X012974Y002573D02*
X012738Y002809D01*
X012738Y003951D01*
X013581Y003951D01*
X012738Y003951D02*
X011596Y003951D01*
X012187Y004620D02*
X011911Y004895D01*
X011911Y005486D01*
X013683Y007258D01*
X018604Y007258D01*
X019195Y007848D01*
X019195Y009620D01*
X019589Y009895D02*
X019589Y007651D01*
X018801Y006864D01*
X014628Y006864D01*
X014903Y006549D02*
X014902Y006539D01*
X014898Y006530D01*
X014892Y006521D01*
X014884Y006515D01*
X014874Y006511D01*
X014864Y006510D01*
X014431Y006510D01*
X014430Y006520D01*
X014426Y006530D01*
X014420Y006538D01*
X014412Y006544D01*
X014402Y006548D01*
X014392Y006549D01*
X014037Y006549D01*
X013841Y006234D02*
X013526Y006234D01*
X013841Y006234D02*
X013851Y006233D01*
X013861Y006229D01*
X013869Y006223D01*
X013875Y006215D01*
X013879Y006205D01*
X013880Y006195D01*
X014234Y006195D01*
X014244Y006196D01*
X014254Y006200D01*
X014262Y006206D01*
X014268Y006215D01*
X014272Y006224D01*
X014273Y006234D01*
X014274Y006234D02*
X018959Y006234D01*
X019313Y005840D01*
X020002Y005821D02*
X020337Y006155D01*
X020337Y006628D01*
X019982Y006982D01*
X020002Y009443D01*
X019982Y009462D01*
X020534Y009738D02*
X020534Y007376D01*
X020494Y007376D01*
X019785Y006549D02*
X019982Y006391D01*
X019785Y006549D02*
X014904Y006549D01*
X013762Y005919D02*
X017896Y005919D01*
X018329Y005486D01*
X017266Y005525D02*
X015927Y005525D01*
X015927Y004029D01*
X015281Y003951D02*
X014887Y003557D01*
X014628Y003557D01*
X014471Y003911D02*
X014471Y004502D01*
X014352Y004620D01*
X012187Y004620D01*
X012384Y004974D02*
X012502Y005053D01*
X014864Y005053D01*
X015281Y004636D01*
X015281Y003951D01*
X014471Y003911D02*
X014431Y003951D01*
X014431Y003911D01*
X015612Y003203D02*
X016793Y004423D01*
X016793Y005014D01*
X015927Y005525D02*
X014825Y005525D01*
X013250Y005525D01*
X013368Y005880D02*
X013367Y005890D01*
X013363Y005900D01*
X013357Y005908D01*
X013349Y005914D01*
X013339Y005918D01*
X013329Y005919D01*
X012896Y005919D01*
X013368Y005880D02*
X013722Y005880D01*
X013732Y005881D01*
X013742Y005885D01*
X013750Y005891D01*
X013756Y005900D01*
X013760Y005909D01*
X013761Y005919D01*
X013211Y007415D02*
X009274Y007415D01*
X008782Y006923D01*
X008644Y006785D01*
X006478Y004620D01*
X006478Y002218D01*
X006262Y002002D01*
X005967Y002002D01*
X005711Y002514D02*
X005415Y002218D01*
X005711Y002514D02*
X005967Y002514D01*
X009156Y004580D02*
X009904Y003832D01*
X009156Y004580D02*
X009156Y005112D01*
X009156Y005624D02*
X009156Y006077D01*
X009077Y006155D01*
X010179Y006825D02*
X010258Y006746D01*
X010258Y001667D01*
X010455Y001470D01*
X011518Y001470D01*
X011754Y001706D01*
X011596Y002140D02*
X011282Y001825D01*
X010947Y002002D02*
X011203Y002258D01*
X011203Y005210D01*
X011596Y005604D01*
X014274Y007730D02*
X014294Y007728D01*
X014314Y007723D01*
X014333Y007714D01*
X014350Y007702D01*
X014364Y007688D01*
X014376Y007671D01*
X014385Y007652D01*
X014390Y007632D01*
X014392Y007612D01*
X014274Y007730D02*
X010376Y007730D01*
X010297Y007809D01*
X010258Y007809D01*
X010415Y008163D02*
X010612Y007966D01*
X014746Y007966D01*
X014904Y007809D01*
X015652Y007730D02*
X018486Y007730D01*
X018329Y008754D02*
X018526Y008951D01*
X018526Y010092D01*
X017561Y011706D02*
X017443Y011825D01*
X017443Y012100D01*
X017482Y012140D01*
X017817Y012140D01*
X017443Y012100D02*
X017443Y012376D01*
X016813Y013321D02*
X016833Y013340D01*
X018191Y013399D02*
X018762Y013399D01*
X019352Y012809D01*
X021459Y012616D02*
X021585Y012565D01*
X021459Y012616D02*
X022187Y014344D01*
X024943Y012888D02*
X024037Y011588D01*
X024093Y011549D01*
X024982Y009817D02*
X024982Y009187D01*
X024864Y009069D01*
X025849Y009423D02*
X025845Y009453D01*
X025839Y009483D01*
X025830Y009513D01*
X025818Y009541D01*
X025803Y009567D01*
X025786Y009593D01*
X025766Y009616D01*
X026439Y009907D02*
X026498Y009852D01*
X026439Y009907D02*
X027305Y010683D01*
X026498Y009852D02*
X026561Y009790D01*
X026623Y009726D01*
X026682Y009660D01*
X026738Y009592D01*
X024825Y007691D02*
X024195Y007691D01*
X024077Y007809D01*
X023526Y006943D02*
X024864Y006943D01*
X025089Y006718D01*
X025484Y006718D01*
X021002Y004923D02*
X021002Y009065D01*
X021006Y009069D01*
X020002Y005821D02*
X020002Y004923D01*
X025562Y009825D02*
X025665Y009721D01*
X025767Y009616D01*
X030096Y002557D02*
X030136Y001990D01*
X030140Y001935D01*
X030967Y001982D01*
X030046Y002978D02*
X030042Y003034D01*
X030035Y003091D01*
X030024Y003147D01*
X030011Y003202D01*
X030046Y002978D02*
X030063Y002873D01*
X030077Y002768D01*
X030088Y002663D01*
X030097Y002557D01*
X023002Y003923D02*
X022986Y003923D01*
X029049Y005569D02*
X029106Y005419D01*
X029160Y005267D01*
X029210Y005114D01*
X029257Y004960D01*
X029301Y004805D01*
X028238Y007380D02*
X028151Y007547D01*
X028061Y007712D01*
X027967Y007875D01*
X027870Y008036D01*
X027769Y008195D01*
X027665Y008351D01*
X027557Y008506D01*
X020002Y003923D02*
X019982Y003903D01*
X019746Y003911D01*
X019274Y003439D01*
X023845Y011294D02*
X023653Y011432D01*
X023459Y011567D01*
X023261Y011697D01*
X023061Y011822D01*
X022858Y011943D01*
X022652Y012059D01*
X022443Y012170D01*
X022232Y012276D01*
X022018Y012377D01*
X021803Y012474D01*
X021585Y012565D01*
X015494Y008517D02*
X015455Y008557D01*
X014077Y008557D01*
X013289Y008557D01*
X014628Y008990D02*
X014746Y008872D01*
X014628Y008990D02*
X010691Y008990D01*
X010415Y008163D02*
X010100Y008163D01*
X009746Y007809D01*
X008722Y007573D02*
X007935Y007573D01*
X011596Y003124D02*
X011596Y002140D01*
X011951Y002199D02*
X012207Y002199D01*
X012384Y002021D01*
X012974Y002573D02*
X013368Y002573D01*
X013506Y002435D01*
X013506Y002061D01*
X014392Y002100D02*
X014805Y002100D01*
X028045Y006986D02*
X028183Y006705D01*
X028315Y006420D01*
X028441Y006133D01*
X028559Y005842D01*
X028671Y005549D01*
X026207Y009647D02*
X026016Y009858D01*
X025819Y010065D01*
X025619Y010267D01*
X025413Y010465D01*
X025204Y010658D01*
X024990Y010846D01*
X024771Y011029D01*
X024549Y011207D01*
X024323Y011381D01*
X024093Y011549D01*
X010730Y003045D02*
X010691Y003006D01*
X010691Y002514D01*
X010691Y002002D02*
X010947Y002002D01*
X028239Y007380D02*
X028458Y006934D01*
X028666Y006484D01*
X028863Y006029D01*
X029050Y005569D01*
X028671Y005549D02*
X028744Y005345D01*
X028813Y005140D01*
X028879Y004934D01*
X028046Y006986D02*
X027892Y007271D01*
X027731Y007553D01*
X027563Y007830D01*
X027389Y008104D01*
X027208Y008373D01*
X027020Y008637D01*
X026826Y008897D01*
X026626Y009152D01*
X026420Y009402D01*
X026207Y009648D01*
X025561Y009825D02*
X025289Y010086D01*
X025011Y010341D01*
X024728Y010589D01*
X024439Y010830D01*
X024144Y011065D01*
X023844Y011294D01*
X026739Y009593D02*
X027018Y009235D01*
X027291Y008873D01*
X027557Y008506D01*
M02*
