G75*
%MOIN*%
%OFA0B0*%
%FSLAX24Y24*%
%IPPOS*%
%LPD*%
%AMOC8*
5,1,8,0,0,1.08239X$1,22.5*
%
%ADD10C,0.0050*%
%ADD11R,0.0500X0.0800*%
%ADD12C,0.0060*%
%ADD13C,0.0040*%
%ADD14R,0.0118X0.0236*%
%ADD15R,0.0236X0.0118*%
%ADD16C,0.0080*%
%ADD17R,0.0197X0.0256*%
%ADD18C,0.0010*%
%ADD19C,0.0030*%
D10*
X013466Y002801D02*
X013541Y002726D01*
X013691Y002726D01*
X013767Y002801D01*
X013927Y002726D02*
X014227Y003176D01*
X014181Y003451D02*
X014181Y003951D01*
X013981Y003951D01*
X014181Y003951D02*
X014181Y004451D01*
X014331Y004351D02*
X014531Y004351D01*
X014531Y003551D01*
X014331Y003551D01*
X014331Y004351D01*
X014681Y004451D02*
X014681Y003951D01*
X014881Y003951D01*
X014681Y003951D02*
X014681Y003451D01*
X015415Y003478D02*
X015415Y003321D01*
X013447Y003321D01*
X013447Y003478D01*
X013541Y003176D02*
X013466Y003101D01*
X013466Y003026D01*
X013541Y002951D01*
X013466Y002876D01*
X013466Y002801D01*
X013541Y002951D02*
X013616Y002951D01*
X013767Y003101D02*
X013691Y003176D01*
X013541Y003176D01*
X013927Y003176D02*
X014227Y002726D01*
X013447Y004423D02*
X013447Y004580D01*
X015415Y004580D01*
X015415Y004423D01*
X025534Y005486D02*
X026715Y005486D01*
X026715Y007454D01*
X025534Y007454D01*
X025534Y005486D01*
D11*
X015181Y003951D03*
X013681Y003951D03*
D12*
X012039Y002551D02*
X012039Y002358D01*
X011863Y002358D02*
X011863Y002551D01*
X010779Y002354D02*
X010779Y002161D01*
X010603Y002161D02*
X010603Y002354D01*
X013154Y002149D02*
X013346Y002149D01*
X013346Y001973D02*
X013154Y001973D01*
X014965Y002012D02*
X015158Y002012D01*
X015158Y002188D02*
X014965Y002188D01*
X009244Y005271D02*
X009244Y005464D01*
X009067Y005464D02*
X009067Y005271D01*
X006055Y002354D02*
X006055Y002161D01*
X005878Y002161D02*
X005878Y002354D01*
X011981Y010153D02*
X011981Y010346D01*
X012157Y010346D02*
X012157Y010153D01*
X014382Y010193D02*
X014382Y010386D01*
X014559Y010386D02*
X014559Y010193D01*
X014559Y011492D02*
X014559Y011685D01*
X014382Y011685D02*
X014382Y011492D01*
X014441Y012830D02*
X014441Y013023D01*
X014264Y013023D02*
X014264Y012830D01*
X013771Y012830D02*
X013771Y013023D01*
X013595Y013023D02*
X013595Y012830D01*
X014934Y012830D02*
X014934Y013023D01*
X015110Y013023D02*
X015110Y012830D01*
X015524Y012830D02*
X015524Y013023D01*
X015700Y013023D02*
X015700Y012830D01*
X016461Y013232D02*
X016654Y013232D01*
X016654Y013409D02*
X016461Y013409D01*
X017266Y013203D02*
X017266Y012573D01*
X018368Y012573D01*
X018368Y013203D01*
X017266Y013203D01*
X017236Y014248D02*
X017236Y014441D01*
X017059Y014441D02*
X017059Y014248D01*
X016055Y014248D02*
X016055Y014441D01*
X015878Y014441D02*
X015878Y014248D01*
X012157Y011842D02*
X012157Y011649D01*
X011981Y011649D02*
X011981Y011842D01*
X017721Y011795D02*
X017913Y011795D01*
X017913Y011618D02*
X017721Y011618D01*
X017917Y011086D02*
X018110Y011086D01*
X018110Y010910D02*
X017917Y010910D01*
X017913Y010535D02*
X017721Y010535D01*
X017721Y010358D02*
X017913Y010358D01*
D13*
X005647Y001607D02*
X005187Y001607D01*
X005340Y001607D02*
X005340Y001837D01*
X005417Y001914D01*
X005570Y001914D01*
X005647Y001837D01*
X005647Y001607D01*
X005340Y001760D02*
X005187Y001914D01*
X005187Y002067D02*
X005187Y002374D01*
X005187Y002221D02*
X005647Y002221D01*
X005494Y002067D01*
X009476Y005138D02*
X009936Y005138D01*
X009936Y005368D01*
X009859Y005445D01*
X009706Y005445D01*
X009629Y005368D01*
X009629Y005138D01*
X009629Y005291D02*
X009476Y005445D01*
X009552Y005598D02*
X009476Y005675D01*
X009476Y005828D01*
X009552Y005905D01*
X009859Y005905D01*
X009936Y005828D01*
X009936Y005675D01*
X009859Y005598D01*
X009782Y005598D01*
X009706Y005675D01*
X009706Y005905D01*
X012348Y002992D02*
X012271Y002915D01*
X012271Y002762D01*
X012348Y002685D01*
X012501Y002685D02*
X012578Y002838D01*
X012578Y002915D01*
X012501Y002992D01*
X012348Y002992D01*
X012731Y002992D02*
X012731Y002685D01*
X012501Y002685D01*
X012501Y002531D02*
X012424Y002455D01*
X012424Y002224D01*
X012271Y002224D02*
X012731Y002224D01*
X012731Y002455D01*
X012654Y002531D01*
X012501Y002531D01*
X012424Y002378D02*
X012271Y002531D01*
X011471Y002565D02*
X011395Y002488D01*
X011471Y002565D02*
X011471Y002718D01*
X011395Y002795D01*
X011318Y002795D01*
X011011Y002488D01*
X011011Y002795D01*
X011011Y002335D02*
X011164Y002181D01*
X011164Y002258D02*
X011164Y002028D01*
X011011Y002028D02*
X011471Y002028D01*
X011471Y002258D01*
X011395Y002335D01*
X011241Y002335D01*
X011164Y002258D01*
X013134Y001664D02*
X013134Y001588D01*
X013210Y001511D01*
X013134Y001434D01*
X013134Y001358D01*
X013210Y001281D01*
X013364Y001281D01*
X013440Y001358D01*
X013594Y001358D02*
X013671Y001281D01*
X013824Y001281D01*
X013901Y001358D01*
X013901Y001664D01*
X013824Y001741D01*
X013671Y001741D01*
X013594Y001664D01*
X013440Y001664D02*
X013364Y001741D01*
X013210Y001741D01*
X013134Y001664D01*
X013210Y001511D02*
X013287Y001511D01*
X014524Y002420D02*
X014831Y002420D01*
X014524Y002727D01*
X014524Y002804D01*
X014600Y002881D01*
X014754Y002881D01*
X014831Y002804D01*
X014984Y002804D02*
X015061Y002881D01*
X015214Y002881D01*
X015291Y002804D01*
X015291Y002497D01*
X015214Y002420D01*
X015061Y002420D01*
X014984Y002497D01*
X014074Y009178D02*
X013767Y009178D01*
X013691Y009255D01*
X013691Y009408D01*
X013767Y009485D01*
X013691Y009638D02*
X013691Y009945D01*
X013691Y009792D02*
X014151Y009792D01*
X013997Y009638D01*
X014074Y009485D02*
X014151Y009408D01*
X014151Y009255D01*
X014074Y009178D01*
X013997Y010099D02*
X014151Y010252D01*
X013691Y010252D01*
X013691Y010099D02*
X013691Y010406D01*
X014791Y011358D02*
X015251Y011358D01*
X015251Y011589D01*
X015174Y011665D01*
X015021Y011665D01*
X014944Y011589D01*
X014944Y011358D01*
X014944Y011512D02*
X014791Y011665D01*
X014867Y011819D02*
X014944Y011819D01*
X015021Y011895D01*
X015021Y012049D01*
X014944Y012126D01*
X014867Y012126D01*
X014791Y012049D01*
X014791Y011895D01*
X014867Y011819D01*
X015021Y011895D02*
X015097Y011819D01*
X015174Y011819D01*
X015251Y011895D01*
X015251Y012049D01*
X015174Y012126D01*
X015097Y012126D01*
X015021Y012049D01*
X015056Y012697D02*
X014749Y012697D01*
X014672Y012774D01*
X014672Y012927D01*
X014749Y013004D01*
X014672Y013157D02*
X014672Y013464D01*
X014672Y013311D02*
X015133Y013311D01*
X014979Y013157D01*
X015056Y013004D02*
X015133Y012927D01*
X015133Y012774D01*
X015056Y012697D01*
X014464Y012774D02*
X014387Y012697D01*
X014080Y012697D01*
X014003Y012774D01*
X014003Y012927D01*
X014080Y013004D01*
X014003Y013157D02*
X014003Y013464D01*
X014003Y013311D02*
X014464Y013311D01*
X014310Y013157D01*
X014387Y013004D02*
X014464Y012927D01*
X014464Y012774D01*
X014464Y013618D02*
X014233Y013618D01*
X014310Y013771D01*
X014310Y013848D01*
X014233Y013925D01*
X014080Y013925D01*
X014003Y013848D01*
X014003Y013694D01*
X014080Y013618D01*
X014464Y013618D02*
X014464Y013925D01*
X014672Y013848D02*
X014749Y013925D01*
X014826Y013925D01*
X014903Y013848D01*
X014903Y013618D01*
X014749Y013618D01*
X014672Y013694D01*
X014672Y013848D01*
X014903Y013618D02*
X015056Y013771D01*
X015133Y013925D01*
X016287Y014191D02*
X016287Y014344D01*
X016363Y014421D01*
X016287Y014575D02*
X016287Y014882D01*
X016287Y015035D02*
X016594Y015342D01*
X016670Y015342D01*
X016747Y015265D01*
X016747Y015112D01*
X016670Y015035D01*
X016747Y014728D02*
X016287Y014728D01*
X016594Y014575D02*
X016747Y014728D01*
X016670Y014421D02*
X016747Y014344D01*
X016747Y014191D01*
X016670Y014114D01*
X016363Y014114D01*
X016287Y014191D01*
X016287Y015035D02*
X016287Y015342D01*
X017468Y015035D02*
X017544Y015035D01*
X017851Y015342D01*
X017928Y015342D01*
X017928Y015035D01*
X017468Y014882D02*
X017468Y014575D01*
X017468Y014728D02*
X017928Y014728D01*
X017775Y014575D01*
X017851Y014421D02*
X017928Y014344D01*
X017928Y014191D01*
X017851Y014114D01*
X017544Y014114D01*
X017468Y014191D01*
X017468Y014344D01*
X017544Y014421D01*
X017567Y012068D02*
X017720Y012068D01*
X017797Y011991D01*
X017950Y012068D02*
X017950Y011684D01*
X018027Y011608D01*
X018181Y011608D01*
X018257Y011684D01*
X018257Y012068D01*
X017797Y011608D02*
X017490Y011914D01*
X017490Y011991D01*
X017567Y012068D01*
X017490Y011608D02*
X017797Y011608D01*
X017777Y011387D02*
X017700Y011310D01*
X018007Y011003D01*
X017931Y010926D01*
X017777Y010926D01*
X017700Y011003D01*
X017700Y011310D01*
X017777Y011387D02*
X017931Y011387D01*
X018007Y011310D01*
X018007Y011003D01*
X018161Y010926D02*
X018468Y010926D01*
X018314Y010926D02*
X018314Y011387D01*
X018468Y011233D01*
X018621Y011310D02*
X018698Y011387D01*
X018851Y011387D01*
X018928Y011310D01*
X018928Y011003D01*
X018851Y010926D01*
X018698Y010926D01*
X018621Y011003D01*
X018665Y010678D02*
X018434Y010678D01*
X018358Y010601D01*
X018358Y010448D01*
X018434Y010371D01*
X018665Y010371D01*
X018665Y010218D02*
X018665Y010678D01*
X018511Y010371D02*
X018358Y010218D01*
X018314Y010127D02*
X018314Y009667D01*
X018161Y009667D02*
X018468Y009667D01*
X018621Y009743D02*
X018698Y009667D01*
X018851Y009667D01*
X018928Y009743D01*
X018928Y010050D01*
X018851Y010127D01*
X018698Y010127D01*
X018621Y010050D01*
X018468Y009974D02*
X018314Y010127D01*
X018204Y010218D02*
X018204Y010295D01*
X017897Y010601D01*
X017897Y010678D01*
X018204Y010678D01*
X017777Y010127D02*
X018007Y009897D01*
X017700Y009897D01*
X017777Y009667D02*
X017777Y010127D01*
X012849Y011593D02*
X012773Y011516D01*
X012466Y011516D01*
X012389Y011593D01*
X012389Y011746D01*
X012466Y011823D01*
X012389Y011976D02*
X012389Y012283D01*
X012389Y012130D02*
X012849Y012130D01*
X012696Y011976D01*
X012773Y011823D02*
X012849Y011746D01*
X012849Y011593D01*
X012773Y012437D02*
X012849Y012513D01*
X012849Y012667D01*
X012773Y012744D01*
X012696Y012744D01*
X012619Y012667D01*
X012542Y012744D01*
X012466Y012744D01*
X012389Y012667D01*
X012389Y012513D01*
X012466Y012437D01*
X012619Y012590D02*
X012619Y012667D01*
X011673Y010366D02*
X011366Y010366D01*
X011289Y010290D01*
X011289Y010136D01*
X011366Y010059D01*
X011366Y009906D02*
X011289Y009829D01*
X011289Y009676D01*
X011366Y009599D01*
X011673Y009599D01*
X011749Y009676D01*
X011749Y009829D01*
X011673Y009906D01*
X011673Y010059D02*
X011596Y010059D01*
X011519Y010136D01*
X011519Y010366D01*
X011673Y010366D02*
X011749Y010290D01*
X011749Y010136D01*
X011673Y010059D01*
X025894Y007027D02*
X025894Y006720D01*
X025894Y006567D02*
X026201Y006567D01*
X026354Y006413D01*
X026201Y006260D01*
X025894Y006260D01*
X025894Y006107D02*
X026048Y005953D01*
X026048Y006030D02*
X026048Y005800D01*
X025894Y005800D02*
X026354Y005800D01*
X026354Y006030D01*
X026278Y006107D01*
X026124Y006107D01*
X026048Y006030D01*
X026124Y006260D02*
X026124Y006567D01*
X026201Y006720D02*
X026354Y006874D01*
X025894Y006874D01*
D14*
X017978Y010449D03*
X017658Y010449D03*
X017855Y011000D03*
X018175Y011000D03*
X017978Y011708D03*
X017658Y011708D03*
X016718Y013323D03*
X016398Y013323D03*
X015220Y002098D03*
X014900Y002098D03*
X013411Y002063D03*
X013091Y002063D03*
D15*
X011949Y002295D03*
X011949Y002615D03*
X010689Y002419D03*
X010689Y002099D03*
X009154Y005209D03*
X009154Y005529D03*
X005968Y002417D03*
X005968Y002097D03*
X012071Y010089D03*
X012071Y010409D03*
X012067Y011587D03*
X012067Y011907D03*
X013681Y012768D03*
X013681Y013088D03*
X014350Y013088D03*
X014350Y012768D03*
X015020Y012768D03*
X015610Y012768D03*
X015610Y013088D03*
X015020Y013088D03*
X015965Y014185D03*
X015965Y014505D03*
X017146Y014505D03*
X017146Y014185D03*
X014469Y011749D03*
X014469Y011429D03*
X014472Y010448D03*
X014472Y010128D03*
D16*
X013841Y010762D02*
X013841Y011234D01*
X013329Y011982D02*
X013093Y011982D01*
X012581Y011234D02*
X012581Y010762D01*
X013093Y010014D02*
X013329Y010014D01*
X016400Y010289D02*
X016596Y010486D01*
X017711Y012568D02*
X017923Y012568D01*
X018377Y012718D02*
X018377Y013057D01*
X017257Y013057D02*
X017257Y012718D01*
D17*
X017443Y012425D03*
X018191Y012425D03*
X018191Y013350D03*
X017817Y013350D03*
X017443Y013350D03*
D18*
X016497Y013041D02*
X016497Y012891D01*
X016397Y012891D01*
X016349Y012891D02*
X016249Y012891D01*
X016299Y012891D02*
X016299Y013041D01*
X016349Y012991D01*
X016042Y012804D02*
X016017Y012829D01*
X015992Y012829D01*
X015967Y012804D01*
X015942Y012829D01*
X015917Y012829D01*
X015892Y012804D01*
X015892Y012754D01*
X015917Y012729D01*
X015892Y012682D02*
X015892Y012582D01*
X016042Y012582D01*
X016017Y012729D02*
X016042Y012754D01*
X016042Y012804D01*
X015967Y012804D02*
X015967Y012779D01*
X015452Y012754D02*
X015427Y012729D01*
X015452Y012754D02*
X015452Y012804D01*
X015427Y012829D01*
X015402Y012829D01*
X015302Y012729D01*
X015302Y012829D01*
X015302Y012682D02*
X015302Y012582D01*
X015452Y012582D01*
X016189Y010829D02*
X016164Y010804D01*
X016164Y010754D01*
X016189Y010729D01*
X016189Y010682D02*
X016314Y010682D01*
X016289Y010729D02*
X016314Y010754D01*
X016314Y010804D01*
X016289Y010829D01*
X016264Y010829D01*
X016239Y010804D01*
X016214Y010829D01*
X016189Y010829D01*
X016239Y010804D02*
X016239Y010779D01*
X016189Y010682D02*
X016164Y010657D01*
X016164Y010607D01*
X016189Y010582D01*
X016314Y010582D01*
X014116Y010200D02*
X014066Y010150D01*
X014091Y010103D02*
X013991Y010103D01*
X013966Y010078D01*
X013966Y010028D01*
X013991Y010003D01*
X014091Y010003D01*
X014116Y010028D01*
X014116Y010078D01*
X014091Y010103D01*
X014016Y010053D02*
X013966Y010103D01*
X013966Y010150D02*
X013966Y010250D01*
X013966Y010200D02*
X014116Y010200D01*
D19*
X015022Y010289D02*
X016596Y010289D01*
X016596Y011864D01*
X015022Y011864D01*
X015022Y010289D01*
M02*
