G75*
%MOIN*%
%OFA0B0*%
%FSLAX24Y24*%
%IPPOS*%
%LPD*%
%AMOC8*
5,1,8,0,0,1.08239X$1,22.5*
%
%ADD10R,0.0700X0.0800*%
%ADD11R,0.0276X0.0354*%
%ADD12R,0.0354X0.0276*%
%ADD13R,0.0600X0.1600*%
%ADD14R,0.0217X0.0472*%
%ADD15R,0.0433X0.0748*%
%ADD16R,0.0197X0.0197*%
%ADD17R,0.0080X0.0190*%
%ADD18R,0.0190X0.0080*%
%ADD19R,0.0413X0.0429*%
%ADD20R,0.0413X0.0280*%
D10*
X013581Y003951D03*
X015281Y003951D03*
D11*
X015317Y002100D03*
X014805Y002100D03*
X013506Y002061D03*
X012994Y002061D03*
X017561Y010447D03*
X018073Y010447D03*
X018270Y010998D03*
X017758Y010998D03*
X017561Y011706D03*
X018073Y011706D03*
X016813Y013321D03*
X016301Y013321D03*
D12*
X005967Y002002D03*
X005967Y002514D03*
X009156Y005112D03*
X009156Y005624D03*
X011951Y002710D03*
X011951Y002199D03*
X010691Y002002D03*
X010691Y002514D03*
X012069Y009994D03*
X012069Y010506D03*
X012069Y011490D03*
X012069Y012002D03*
X013683Y012671D03*
X013683Y013183D03*
X014352Y013183D03*
X014352Y012671D03*
X015022Y012671D03*
X015612Y012671D03*
X015612Y013183D03*
X015022Y013183D03*
X015967Y014088D03*
X015967Y014600D03*
X017148Y014600D03*
X017148Y014088D03*
X014471Y011844D03*
X014471Y011332D03*
X014471Y010545D03*
X014471Y010033D03*
D13*
X015573Y016077D03*
X017573Y016077D03*
D14*
X017443Y013399D03*
X017817Y013399D03*
X018191Y013399D03*
X018191Y012376D03*
X017443Y012376D03*
D15*
X013663Y011726D03*
X012758Y011726D03*
X012758Y010269D03*
X013663Y010269D03*
D16*
X015809Y011077D03*
D17*
X015809Y011807D03*
X015614Y011807D03*
X015414Y011807D03*
X016004Y011807D03*
X016204Y011807D03*
X016204Y010347D03*
X016004Y010347D03*
X015809Y010347D03*
X015614Y010347D03*
X015414Y010347D03*
D18*
X015079Y010682D03*
X015079Y010882D03*
X015079Y011077D03*
X015079Y011272D03*
X015079Y011472D03*
X016539Y011472D03*
X016539Y011272D03*
X016539Y011077D03*
X016539Y010882D03*
X016539Y010682D03*
D19*
X025484Y007301D03*
X026764Y007301D03*
X026764Y005640D03*
X025484Y005640D03*
D20*
X025484Y006218D03*
X025484Y006718D03*
X026764Y006718D03*
X026764Y006218D03*
M02*
