%
M48
M72
T01C0.0197
T02C0.0394
T03C0.0400
T04C0.0413
T05C0.0472
%
T01
X5415Y2218
X9904Y3832
X10730Y3045
X11596Y3124
X12226Y3321
X13289Y2966
X14195Y2494
X14392Y2100
X14943Y2848
X15848Y2100
X15848Y1391
X12384Y2021
X11282Y1825
X14628Y3557
X14431Y3911
X15927Y4029
X16793Y5014
X17266Y5525
X18329Y5486
X19313Y5840
X19982Y6391
X20494Y7376
X21400Y7376
X21715Y7691
X22620Y7966
X23014Y8281
X22266Y8714
X21006Y9069
X20534Y9738
X19982Y9462
X19195Y9620
X19313Y10092
X18526Y10092
X17896Y9226
X18329Y8754
X18053Y8439
X17699Y8203
X16360Y9462
X16990Y9620
X17187Y10053
X17423Y10998
X18486Y11431
X17817Y12140
X17148Y11706
X16872Y12573
X16242Y12573
X16557Y15014
X14904Y16077
X13998Y16077
X13211Y16077
X14431Y15328
X13644Y15053
X18329Y16077
X19195Y16077
X20022Y16077
X18762Y15289
X19510Y15014
X21833Y11510
X22659Y11510
X23211Y11037
X24037Y10643
X24471Y9777
X24982Y9817
X25848Y9423
X24864Y9069
X24037Y8714
X24077Y7809
X23683Y7376
X24825Y7691
X23014Y6470
X23486Y6234
X22817Y6077
X24510Y6234
X26006Y6116
X26085Y5643
X27266Y5014
X21478Y3203
X20534Y3203
X14825Y5525
X13526Y6234
X14037Y6549
X14628Y6864
X14392Y7612
X14904Y7809
X15652Y7730
X15494Y8517
X14746Y8872
X14077Y8557
X13289Y8557
X12778Y8636
X11203Y8636
X10219Y8872
X9037Y9029
X9746Y7809
X10258Y7809
X8722Y7573
X7935Y7573
X9077Y6155
X10179Y6825
X11596Y5604
X12384Y4974
X13250Y5525
X12896Y5919
X13211Y7415
X9785Y5368
X11596Y3951
X11360Y10014
X11045Y10368
X10691Y10683
X14982Y10171
X20415Y11313
X22030Y9935
X23368Y9502
T02
X2305Y1982
X2778Y5053
X3998Y7966
X5888Y10683
X8329Y12848
X11124Y14344
X22187Y14344
X24943Y12888
X27305Y10683
X29234Y7966
X30415Y5053
X30967Y1982
T03
X26002Y3923
X25002Y3923
X24002Y3923
X23002Y3923
X22002Y3923
X21002Y3923
X20002Y3923
X19002Y3923
X19002Y4923
X20002Y4923
X21002Y4923
X22002Y4923
X23002Y4923
X24002Y4923
X25002Y4923
X26002Y4923
T04
X9284Y3332
X7374Y3332
T05
X7256Y2140
X9402Y2140
M30
